<svg width="1440" height="1024" viewBox="0 0 1440 1024" fill="none" xmlns="http://www.w3.org/2000/svg">
<g clip-path="url(#clip0_3534_4860)">
<g filter="url(#filter0_dd_3534_4860)">
<rect x="-16" width="1464" height="1024" fill="url(#paint0_linear_3534_4860)"/>
</g>
<circle cx="937.5" cy="371.5" r="123.5" fill="#FFC67A"/>
<path d="M403 449L412.5 451.5L418.5 449L425 446L439 437L473.5 446L494 441.5L495.5 438.5L514 430L538.5 432.5L572.5 412.5L582 409.5H594.5L607.5 405L612 402.5H620.5L629.5 397.5H636L642.5 399.5L650.5 397.5L658.5 396L666 392.5L677.5 383.5L685.5 380.5H693.5L699 386.5L711.5 383.5L714.5 382H724.5L728 385L737 382L742 379H749L758 375L770 369L778 363H781.5L804 385L820.5 399L837.5 409L853.5 419L867 424L876 422L883.5 426L891.5 436L903.5 447.5L916 454.5L926.5 460L934 461.5L936 460L950.5 463.5L973 461.5L991.5 458H1030H1057L1111.5 486.5L1156 506.5L1175.5 511L1196 513L1208.5 521.5L1234 540L1263 551L1300.5 561.5L1327.5 566L1382 570L1390.5 569L1403 567.5L1416.5 569L1433 571.5H1440V1019H0V518.5L73 515.5L159.5 517L246 510.5L308.5 500.5L349 480.5L380.5 470L395 454.5L403 449Z" fill="#A09EBB" stroke="#A09EBB"/>
<path d="M521.5 538.5L505 549.5L500 556.5L488 568L478 576L451 588.5L398 600.5L365 609.5C354 613.5 331 621.5 327 621.5C323 621.5 294.667 623.833 281 625L250 621.5L178 630.5L97 644.5L1 630.5V1046.5H1440V754.5L1415 748.5L1374 732.5L1246 698.5L1167 685.5L1114 659.5L1089.5 644.5L1078 637.5L1062.5 630.5L1055 628L1051.5 625L1043 621.5L1031.5 614.5L1027 613.5L1024 610.5L1019.5 609.5L1013 605L1007.5 603.5L1002 600.5L988 592.5L978.5 588.5L970 583.5L957.5 576L948.5 568L937 558L934 556.5L915.5 539.5L912 538.5L906.5 535H903.5L901 532.5L892 526L883 519.5L867.5 506H865.5L863.5 505H855L852.5 503.5L840.5 503L834 496.5L827 488.5L812 473.5L800 464.5L794.5 459.5L783 449.5L771.5 441.5L757.5 434.5L754.5 434L752 432.5L748.5 431.5L745 431L743.5 432L743 432.5H742H741L739.5 433L738 433.5L736.5 434H735L730 434.5L725.5 435H723L720.5 435.5L716.5 436H712L707 436.5L703.5 437L700.5 437.5H697.5L694.5 438H692L685.5 437.5H679.5H675.5L671.5 438.5L668.5 439L665.5 438.5H660L655.5 440L651 440.5L643.5 443L638 444.5L632.5 447.5L626 451L621.5 455.5H619L616.5 456.5L610.5 461L601.5 466L591 476.5L576 490.5L568 500L552 511L540.5 521.5L521.5 538.5Z" fill="#959EB5" stroke="#959EB5"/>
<path d="M199 499.083L210 500L220.5 499H235.5L243.5 495.5L257.5 487L282.5 474.5L295.5 468.5L305.5 463.5L314 460L324.5 454.5L330.5 451.5L336 450L342 449L349.5 448.5L355.5 446.5L361.5 445.5L368.5 443.5L375 441.5H377.5L379.5 443.5L384.5 446.5L391 449L396.5 451.5L403.5 454.5L405.5 457.5L408 459.5L422.5 470L432 476.5L435.5 478L437.5 479L438.5 480.5L441 482.5L445.5 485.5L451 489L454.5 492L457.5 494L459.5 495L461 496L462 497L463.5 499L465.5 500L468 501L472 502.5L478 506L481 506.5L484 508.5L488 511L494 515L500 519.5L503.5 521.5L508.5 522.5H514L519 520.5L524 519.5L528 519L533 518H538L541 520.5L544 521.5L546 523.5L549 525L555 527L559.5 529.5L569.5 536.5L574 541L576.5 544.5H580.5L589 548.5L595 552.5L605.5 555L611.5 557.5H624.5L629 559L633.5 555L636.5 555.5L642 555L646 552.5H654L665.5 551.5L676.5 550L689.5 551.5L695.5 552.5L699.5 551.5H710.5L721 552.5H734L752 555L772.5 559L790 565L808 569L824 575L839.5 583.5L851 589.5L865.5 593.5H880L908 592.5L926 594L952.5 602L973 605.5L978.5 604.5L982 603.5L986.5 604.5L989.5 606.5L993 608.5L997 609.5H1002L1006 610.5L1010 613L1023.5 614.5L1045 614L1062 615.5L1074 614.5L1087 615.5L1100.5 618.5L1111 622L1119 623L1123 624H1128L1131.5 625L1137.5 627L1141.5 629H1145.5L1148.5 630.5H1152L1159.5 633H1163L1167.5 634L1173 635.5L1181.5 638L1193.5 640.5L1200 643L1209 646.5L1217.5 648.5L1227.5 652L1242.5 661L1254.5 666C1257.83 667 1264.8 669 1266 669C1267.2 669 1279.17 670.333 1285 671H1303.5L1326 673L1337 675.5L1344.5 678.5L1351.5 683.5L1364.5 692.5L1374.5 697C1376.5 698 1380.7 700.2 1381.5 701C1382.3 701.8 1385.83 704.667 1387.5 706L1393.5 711L1397 714.5L1402 718.5L1407 721L1416.5 725L1421.5 726.5H1426.5L1433 728.5H1440V1025L0 1024V510L21.5 508.5H29.5L34 510H52L54.5 508.5H67V510H70.5C75.7 510 80.3333 509 82 508.5C83.6667 508 87.4 507 89 507H104.5C104.667 507.5 105.3 508.5 106.5 508.5H111.5C113 508.5 116.5 507 117.5 507C118.5 507 123 505.5 124 505.5C124.8 505.5 128 504.5 129.5 504H133.5C137.5 504 140.5 503 141.5 502.5H152L155.5 504L157 505.5C158.833 505 162.8 504 164 504H170L172.5 502.5H176L179 500.5H181L184 499H191L193.5 497.5H195L198 499H199V499.083Z" fill="#7B9DA7"/>
<path d="M198 499L210 500L220.5 499H235.5L243.5 495.5L257.5 487L282.5 474.5L295.5 468.5L305.5 463.5L314 460L324.5 454.5L330.5 451.5L336 450L342 449L349.5 448.5L355.5 446.5L361.5 445.5L368.5 443.5L375 441.5H377.5L379.5 443.5L384.5 446.5L391 449L396.5 451.5L403.5 454.5L405.5 457.5L408 459.5L422.5 470L432 476.5L435.5 478L437.5 479L438.5 480.5L441 482.5L445.5 485.5L451 489L454.5 492L457.5 494L459.5 495L461 496L462 497L463.5 499L465.5 500L468 501L472 502.5L478 506L481 506.5L484 508.5L488 511L494 515L500 519.5L503.5 521.5L508.5 522.5H514L519 520.5L524 519.5L528 519L533 518H538L541 520.5L544 521.5L546 523.5L549 525L555 527L559.5 529.5L569.5 536.5L574 541L576.5 544.5H580.5L589 548.5L595 552.5L605.5 555L611.5 557.5H624.5L629 559L633.5 555L636.5 555.5L642 555L646 552.5H654L665.5 551.5L676.5 550L689.5 551.5L695.5 552.5L699.5 551.5H710.5L721 552.5H734L752 555L772.5 559L790 565L808 569L824 575L839.5 583.5L851 589.5L865.5 593.5H880L908 592.5L926 594L952.5 602L973 605.5L978.5 604.5L982 603.5L986.5 604.5L989.5 606.5L993 608.5L997 609.5H1002L1006 610.5L1010 613L1023.5 614.5L1045 614L1062 615.5L1074 614.5L1087 615.5L1100.5 618.5L1111 622L1119 623L1123 624H1128L1131.5 625L1137.5 627L1141.5 629H1145.5L1148.5 630.5H1152L1159.5 633H1163L1167.5 634L1173 635.5L1181.5 638L1193.5 640.5L1200 643L1209 646.5L1217.5 648.5L1227.5 652L1242.5 661L1254.5 666C1257.83 667 1264.8 669 1266 669C1267.2 669 1279.17 670.333 1285 671H1303.5L1326 673L1337 675.5L1344.5 678.5L1351.5 683.5L1364.5 692.5L1374.5 697C1376.5 698 1380.7 700.2 1381.5 701C1382.3 701.8 1385.83 704.667 1387.5 706L1393.5 711L1397 714.5L1402 718.5L1407 721L1416.5 725L1421.5 726.5H1426.5L1433 728.5H1440V1025L0 1024V510L21.5 508.5H29.5L34 510H52L54.5 508.5H67V510H70.5C75.7 510 80.3333 509 82 508.5C83.6667 508 87.4 507 89 507H104.5C104.667 507.5 105.3 508.5 106.5 508.5H111.5C113 508.5 116.5 507 117.5 507C118.5 507 123 505.5 124 505.5C124.8 505.5 128 504.5 129.5 504H133.5C137.5 504 140.5 503 141.5 502.5H152L155.5 504L157 505.5C158.833 505 162.8 504 164 504H170L172.5 502.5H176L179 500.5H181L184 499H191L193.5 497.5H195L198 499ZM198 499H199V499.5" stroke="#7B9DA7"/>
<path d="M291 577L197 544L186 539L150 530L82 508L0 495V1023H1439V806L1414 796L1357 785L1311 774L1229 752L1187 742L1136 728L1076 713L976 684L936 671L900 665H874H744L712 656L639 648H535L494 637L460 622L394 608L342 591L291 577Z" fill="#6A9D9E" stroke="#6A9D9E"/>
<path d="M259.5 665L197.5 635H188L165.5 632.5L105.5 635L51.5 638L0 640.5V1022H1439.5V915C1437.17 914.333 1431.4 912.4 1427 910C1421.5 907 1391.5 910 1388.5 910C1386.1 910 1370.83 905.667 1363.5 903.5C1351.83 902.167 1327.8 899.3 1325 898.5C1321.5 897.5 1304.5 892.5 1298.5 891C1292.5 889.5 1254 886 1251.5 885C1249.5 884.2 1231.67 875 1223 870.5L1073.5 811L1026 792L985 776L927.5 760L858 746L761.5 726L717 719.5L644 716.5L596.5 719.5H553L519 726H496.5H485L460 719.5L419 707.5L365.5 691.5L316 676L275.5 670L259.5 665Z" fill="#469D89" stroke="#469D89"/>
<path d="M207 737L196.5 734L186 737L143 734C114 733 55.4 730.8 53 730C50.6 729.2 10.3333 724 -9.5 721.5L-5.5 1031.5H1445V1023.5L1442 890.5L1395.5 882.5L1269.5 858.5L1208 844.5L1132 823.5L1093 812L1044 806L993.5 802.5L948 797L925.5 789.5L917 786H891L853 782.5L811 778L788.5 775.5L783 773L756 768L670.5 757L600.5 752L555 749.5L504.5 745.5H421.5L363 742L284 737H207Z" fill="#5CB095" stroke="#5CB095"/>
<path d="M204.5 797L198 797.5L188 800.5L163 804L100.5 806L44.5 808.5L-2 810L-62 818.5V1031L1445 1052V944L1374 928L1277 892L1192 884L1115 868L1073 844.5L1066 841.5L1048.5 836L1023.5 831L948.5 818.5L909.5 810L873.5 801.5L853 797.5L837 795.5L827 793L808.5 792L772.5 790.5L707 793.5L696.5 791.5L685.5 789L669 786H649L640 784L601 778.5L587 773.5L540.5 768L505.5 765.5L443 766.5L406.5 770L349 780L304 787H290.5L253 792L231.5 795L219 796.5L204.5 797Z" fill="#5CB095" stroke="#5CB095"/>
<path d="M413 836L359 831L354.5 836L349.5 840L345.5 845.5L331 848.5L309.5 859.5L208.5 848.5L195 847L172 842.5L152 840L100 836L68 835L24 836L-15 842V1033L1444.5 1047L1441 886L1433 888H1425L1403 890.5H1374.5L1354.5 888H1336L1322.5 886L1276 876L1231 870H1181L1123 857L1064.5 844.5L1014.5 840L973 837.5L942 834.5H889.5H853L821 830L775.5 823.5L732.5 815L640 793.5L620 789.5L604.5 787L589.5 793.5L568.5 804C559.667 807.5 541.5 814.6 539.5 815C537.5 815.4 507.667 822.167 493 825.5L442 831L413 836Z" fill="#72C2A0" stroke="#72C2A0"/>
<path d="M227.5 845H198.5L193.5 848L183.5 850L174 857.5L138 869.5L95 873.5L61.5 874.5L25.5 875.5L-1.5 876L-4 874.5L-25 866L-49 857.5L-109 1067L1446 1046L1452 1007H1435H1404L1344 998L1288 990L1246 975L1188 955L1077 937L953 924L766 900L726 895L706.5 892.5L604 874.5L540.5 866L478 857.5L441 852.5L371 841.5L340 834H315L294.5 839L277 841.5H254.5L227.5 845Z" fill="#99E2B4" stroke="#99E2B4"/>
</g>
<defs>
<filter id="filter0_dd_3534_4860" x="-20" y="0" width="1472" height="1032" filterUnits="userSpaceOnUse" color-interpolation-filters="sRGB">
<feFlood flood-opacity="0" result="BackgroundImageFix"/>
<feColorMatrix in="SourceAlpha" type="matrix" values="0 0 0 0 0 0 0 0 0 0 0 0 0 0 0 0 0 0 127 0" result="hardAlpha"/>
<feOffset dy="4"/>
<feGaussianBlur stdDeviation="2"/>
<feComposite in2="hardAlpha" operator="out"/>
<feColorMatrix type="matrix" values="0 0 0 0 0 0 0 0 0 0 0 0 0 0 0 0 0 0 0.25 0"/>
<feBlend mode="normal" in2="BackgroundImageFix" result="effect1_dropShadow_3534_4860"/>
<feColorMatrix in="SourceAlpha" type="matrix" values="0 0 0 0 0 0 0 0 0 0 0 0 0 0 0 0 0 0 127 0" result="hardAlpha"/>
<feOffset dy="4"/>
<feGaussianBlur stdDeviation="2"/>
<feComposite in2="hardAlpha" operator="out"/>
<feColorMatrix type="matrix" values="0 0 0 0 0 0 0 0 0 0 0 0 0 0 0 0 0 0 0.25 0"/>
<feBlend mode="normal" in2="effect1_dropShadow_3534_4860" result="effect2_dropShadow_3534_4860"/>
<feBlend mode="normal" in="SourceGraphic" in2="effect2_dropShadow_3534_4860" result="shape"/>
</filter>
<linearGradient id="paint0_linear_3534_4860" x1="716" y1="-12" x2="716" y2="1024" gradientUnits="userSpaceOnUse">
<stop stop-color="#FEFAF4"/>
<stop offset="0.920849" stop-color="#F8E4DA"/>
</linearGradient>
<clipPath id="clip0_3534_4860">
<rect width="1440" height="1024" fill="white"/>
</clipPath>
</defs>
</svg>
