<svg width="540" height="500" viewBox="0 0 540 500" fill="none" xmlns="http://www.w3.org/2000/svg">
<g clip-path="url(#clip0_2805_6084)">
<rect width="540" height="500" fill="#25CED1"/>
<g filter="url(#filter0_d_2805_6084)">
<rect x="54" y="48" width="432" height="662" fill="#FCEADE"/>
</g>
<g filter="url(#filter1_d_2805_6084)">
<rect x="153" y="166" width="234" height="283" rx="10" fill="white"/>
</g>
<rect x="195" y="396" width="151" height="35" rx="4" fill="#FF8A5B"/>
<path d="M252.828 409.828C252.78 409.908 252.727 409.969 252.668 410.012C252.615 410.049 252.548 410.068 252.468 410.068C252.377 410.068 252.271 410.023 252.148 409.932C252.025 409.841 251.871 409.743 251.684 409.636C251.503 409.524 251.281 409.423 251.02 409.332C250.764 409.241 250.452 409.196 250.084 409.196C249.737 409.196 249.431 409.244 249.164 409.34C248.903 409.431 248.681 409.556 248.5 409.716C248.324 409.876 248.191 410.065 248.1 410.284C248.009 410.497 247.964 410.729 247.964 410.98C247.964 411.3 248.041 411.567 248.196 411.78C248.356 411.988 248.564 412.167 248.82 412.316C249.081 412.465 249.375 412.596 249.7 412.708C250.031 412.815 250.367 412.927 250.708 413.044C251.055 413.161 251.391 413.295 251.716 413.444C252.047 413.588 252.34 413.772 252.596 413.996C252.857 414.22 253.065 414.495 253.22 414.82C253.38 415.145 253.46 415.545 253.46 416.02C253.46 416.521 253.375 416.993 253.204 417.436C253.033 417.873 252.783 418.255 252.452 418.58C252.127 418.905 251.724 419.161 251.244 419.348C250.769 419.535 250.228 419.628 249.62 419.628C248.873 419.628 248.196 419.495 247.588 419.228C246.98 418.956 246.46 418.591 246.028 418.132L246.476 417.396C246.519 417.337 246.569 417.289 246.628 417.252C246.692 417.209 246.761 417.188 246.836 417.188C246.905 417.188 246.983 417.217 247.068 417.276C247.159 417.329 247.26 417.399 247.372 417.484C247.484 417.569 247.612 417.663 247.756 417.764C247.9 417.865 248.063 417.959 248.244 418.044C248.431 418.129 248.641 418.201 248.876 418.26C249.111 418.313 249.375 418.34 249.668 418.34C250.036 418.34 250.364 418.289 250.652 418.188C250.94 418.087 251.183 417.945 251.38 417.764C251.583 417.577 251.737 417.356 251.844 417.1C251.951 416.844 252.004 416.559 252.004 416.244C252.004 415.897 251.924 415.615 251.764 415.396C251.609 415.172 251.404 414.985 251.148 414.836C250.892 414.687 250.599 414.561 250.268 414.46C249.937 414.353 249.601 414.247 249.26 414.14C248.919 414.028 248.583 413.9 248.252 413.756C247.921 413.612 247.628 413.425 247.372 413.196C247.116 412.967 246.908 412.681 246.748 412.34C246.593 411.993 246.516 411.567 246.516 411.06C246.516 410.655 246.593 410.263 246.748 409.884C246.908 409.505 247.137 409.169 247.436 408.876C247.74 408.583 248.111 408.348 248.548 408.172C248.991 407.996 249.497 407.908 250.068 407.908C250.708 407.908 251.289 408.009 251.812 408.212C252.34 408.415 252.804 408.708 253.204 409.092L252.828 409.828ZM261.823 411.396V419.5H260.975C260.773 419.5 260.645 419.401 260.591 419.204L260.479 418.332C260.127 418.721 259.733 419.036 259.295 419.276C258.858 419.511 258.357 419.628 257.791 419.628C257.349 419.628 256.957 419.556 256.615 419.412C256.279 419.263 255.997 419.055 255.767 418.788C255.538 418.521 255.365 418.199 255.247 417.82C255.135 417.441 255.079 417.023 255.079 416.564V411.396H256.503V416.564C256.503 417.177 256.642 417.652 256.919 417.988C257.202 418.324 257.631 418.492 258.207 418.492C258.629 418.492 259.021 418.393 259.383 418.196C259.751 417.993 260.09 417.716 260.399 417.364V411.396H261.823ZM265.513 417.548C265.774 417.9 266.06 418.148 266.369 418.292C266.684 418.436 267.028 418.508 267.401 418.508C268.164 418.508 268.748 418.239 269.153 417.7C269.558 417.161 269.761 416.359 269.761 415.292C269.761 414.3 269.58 413.572 269.217 413.108C268.86 412.639 268.348 412.404 267.681 412.404C267.217 412.404 266.812 412.511 266.465 412.724C266.124 412.937 265.806 413.239 265.513 413.628V417.548ZM265.513 412.564C265.854 412.169 266.238 411.855 266.665 411.62C267.097 411.385 267.593 411.268 268.153 411.268C268.628 411.268 269.054 411.359 269.433 411.54C269.817 411.721 270.142 411.985 270.409 412.332C270.676 412.673 270.878 413.089 271.017 413.58C271.161 414.071 271.233 414.623 271.233 415.236C271.233 415.892 271.153 416.489 270.993 417.028C270.833 417.567 270.601 418.028 270.297 418.412C269.998 418.791 269.633 419.087 269.201 419.3C268.769 419.508 268.284 419.612 267.745 419.612C267.212 419.612 266.761 419.513 266.393 419.316C266.03 419.113 265.713 418.828 265.441 418.46L265.369 419.196C265.326 419.399 265.204 419.5 265.001 419.5H264.081V407.716H265.513V412.564ZM273.034 419.5V411.396H273.89C274.093 411.396 274.218 411.495 274.266 411.692L274.37 412.524C274.669 412.156 275.005 411.855 275.378 411.62C275.752 411.385 276.184 411.268 276.674 411.268C277.218 411.268 277.658 411.42 277.994 411.724C278.336 412.028 278.581 412.439 278.73 412.956C278.848 412.663 278.997 412.409 279.178 412.196C279.365 411.983 279.573 411.807 279.802 411.668C280.032 411.529 280.274 411.428 280.53 411.364C280.792 411.3 281.056 411.268 281.322 411.268C281.749 411.268 282.128 411.337 282.458 411.476C282.794 411.609 283.077 411.807 283.306 412.068C283.541 412.329 283.72 412.652 283.842 413.036C283.965 413.415 284.026 413.849 284.026 414.34V419.5H282.594V414.34C282.594 413.705 282.456 413.225 282.178 412.9C281.901 412.569 281.501 412.404 280.978 412.404C280.744 412.404 280.52 412.447 280.306 412.532C280.098 412.612 279.914 412.732 279.754 412.892C279.594 413.052 279.466 413.255 279.37 413.5C279.28 413.74 279.234 414.02 279.234 414.34V419.5H277.802V414.34C277.802 413.689 277.672 413.204 277.41 412.884C277.149 412.564 276.768 412.404 276.266 412.404C275.914 412.404 275.589 412.5 275.29 412.692C274.992 412.879 274.717 413.135 274.466 413.46V419.5H273.034ZM287.695 411.396V419.5H286.271V411.396H287.695ZM287.999 408.852C287.999 408.991 287.969 409.121 287.911 409.244C287.857 409.361 287.783 409.468 287.687 409.564C287.596 409.655 287.487 409.727 287.359 409.78C287.236 409.833 287.105 409.86 286.967 409.86C286.828 409.86 286.697 409.833 286.575 409.78C286.457 409.727 286.353 409.655 286.263 409.564C286.172 409.468 286.1 409.361 286.047 409.244C285.993 409.121 285.967 408.991 285.967 408.852C285.967 408.713 285.993 408.583 286.047 408.46C286.1 408.332 286.172 408.223 286.263 408.132C286.353 408.036 286.457 407.961 286.575 407.908C286.697 407.855 286.828 407.828 286.967 407.828C287.105 407.828 287.236 407.855 287.359 407.908C287.487 407.961 287.596 408.036 287.687 408.132C287.783 408.223 287.857 408.332 287.911 408.46C287.969 408.583 287.999 408.713 287.999 408.852ZM292.522 419.628C291.882 419.628 291.389 419.449 291.042 419.092C290.701 418.735 290.53 418.22 290.53 417.548V412.588H289.554C289.469 412.588 289.397 412.564 289.338 412.516C289.28 412.463 289.25 412.383 289.25 412.276V411.708L290.578 411.54L290.906 409.036C290.922 408.956 290.957 408.892 291.01 408.844C291.069 408.791 291.144 408.764 291.234 408.764H291.954V411.556H294.298V412.588H291.954V417.452C291.954 417.793 292.037 418.047 292.202 418.212C292.368 418.377 292.581 418.46 292.842 418.46C292.992 418.46 293.12 418.441 293.226 418.404C293.338 418.361 293.434 418.316 293.514 418.268C293.594 418.22 293.661 418.177 293.714 418.14C293.773 418.097 293.824 418.076 293.866 418.076C293.941 418.076 294.008 418.121 294.066 418.212L294.482 418.892C294.237 419.121 293.941 419.303 293.594 419.436C293.248 419.564 292.89 419.628 292.522 419.628Z" fill="white"/>
<rect x="171" y="354" width="198" height="25" rx="3" fill="white"/>
<g clip-path="url(#clip1_2805_6084)">
<path d="M340.75 367C340.75 367 343.75 361 349 361C354.25 361 357.25 367 357.25 367C357.25 367 354.25 373 349 373C343.75 373 340.75 367 340.75 367Z" stroke="#111111" stroke-width="2" stroke-linecap="round" stroke-linejoin="round"/>
<path d="M349 369.25C350.243 369.25 351.25 368.243 351.25 367C351.25 365.757 350.243 364.75 349 364.75C347.757 364.75 346.75 365.757 346.75 367C346.75 368.243 347.757 369.25 349 369.25Z" stroke="#111111" stroke-width="2" stroke-linecap="round" stroke-linejoin="round"/>
</g>
<path d="M184.56 371.048C184.821 371.4 185.107 371.648 185.416 371.792C185.725 371.936 186.072 372.008 186.456 372.008C187.213 372.008 187.795 371.739 188.2 371.2C188.605 370.661 188.808 369.893 188.808 368.896C188.808 368.368 188.76 367.915 188.664 367.536C188.573 367.157 188.44 366.848 188.264 366.608C188.088 366.363 187.872 366.184 187.616 366.072C187.36 365.96 187.069 365.904 186.744 365.904C186.28 365.904 185.872 366.011 185.52 366.224C185.173 366.437 184.853 366.739 184.56 367.128V371.048ZM184.488 366.152C184.829 365.731 185.224 365.392 185.672 365.136C186.12 364.88 186.632 364.752 187.208 364.752C187.677 364.752 188.101 364.843 188.48 365.024C188.859 365.2 189.181 365.464 189.448 365.816C189.715 366.163 189.92 366.595 190.064 367.112C190.208 367.629 190.28 368.224 190.28 368.896C190.28 369.493 190.2 370.051 190.04 370.568C189.88 371.08 189.648 371.525 189.344 371.904C189.045 372.277 188.677 372.573 188.24 372.792C187.808 373.005 187.32 373.112 186.776 373.112C186.28 373.112 185.853 373.029 185.496 372.864C185.144 372.693 184.832 372.459 184.56 372.16V375.744H183.128V364.896H183.984C184.187 364.896 184.312 364.995 184.36 365.192L184.488 366.152ZM196.489 369.352C195.833 369.373 195.273 369.427 194.809 369.512C194.35 369.592 193.974 369.699 193.681 369.832C193.393 369.965 193.182 370.123 193.049 370.304C192.921 370.485 192.857 370.688 192.857 370.912C192.857 371.125 192.891 371.309 192.961 371.464C193.03 371.619 193.123 371.747 193.241 371.848C193.363 371.944 193.505 372.016 193.665 372.064C193.83 372.107 194.006 372.128 194.193 372.128C194.443 372.128 194.673 372.104 194.881 372.056C195.089 372.003 195.283 371.928 195.465 371.832C195.651 371.736 195.827 371.621 195.993 371.488C196.163 371.355 196.329 371.203 196.489 371.032V369.352ZM191.889 366.04C192.337 365.608 192.819 365.285 193.337 365.072C193.854 364.859 194.427 364.752 195.057 364.752C195.51 364.752 195.913 364.827 196.265 364.976C196.617 365.125 196.913 365.333 197.153 365.6C197.393 365.867 197.574 366.189 197.697 366.568C197.819 366.947 197.881 367.363 197.881 367.816V373H197.249C197.11 373 197.003 372.979 196.929 372.936C196.854 372.888 196.795 372.797 196.753 372.664L196.593 371.896C196.379 372.093 196.171 372.269 195.969 372.424C195.766 372.573 195.553 372.701 195.329 372.808C195.105 372.909 194.865 372.987 194.609 373.04C194.358 373.099 194.078 373.128 193.769 373.128C193.454 373.128 193.158 373.085 192.881 373C192.603 372.909 192.361 372.776 192.153 372.6C191.95 372.424 191.787 372.203 191.665 371.936C191.547 371.664 191.489 371.344 191.489 370.976C191.489 370.656 191.577 370.349 191.753 370.056C191.929 369.757 192.214 369.493 192.609 369.264C193.003 369.035 193.518 368.848 194.153 368.704C194.787 368.555 195.566 368.469 196.489 368.448V367.816C196.489 367.187 196.353 366.712 196.081 366.392C195.809 366.067 195.411 365.904 194.889 365.904C194.537 365.904 194.241 365.949 194.001 366.04C193.766 366.125 193.561 366.224 193.385 366.336C193.214 366.443 193.065 366.541 192.937 366.632C192.814 366.717 192.691 366.76 192.569 366.76C192.473 366.76 192.39 366.736 192.321 366.688C192.251 366.635 192.193 366.571 192.145 366.496L191.889 366.04ZM204.77 366.232C204.706 366.349 204.607 366.408 204.474 366.408C204.394 366.408 204.303 366.379 204.202 366.32C204.101 366.261 203.975 366.197 203.826 366.128C203.682 366.053 203.509 365.987 203.306 365.928C203.103 365.864 202.863 365.832 202.586 365.832C202.346 365.832 202.13 365.864 201.938 365.928C201.746 365.987 201.581 366.069 201.442 366.176C201.309 366.283 201.205 366.408 201.13 366.552C201.061 366.691 201.026 366.843 201.026 367.008C201.026 367.216 201.085 367.389 201.202 367.528C201.325 367.667 201.485 367.787 201.682 367.888C201.879 367.989 202.103 368.08 202.354 368.16C202.605 368.235 202.861 368.317 203.122 368.408C203.389 368.493 203.647 368.589 203.898 368.696C204.149 368.803 204.373 368.936 204.57 369.096C204.767 369.256 204.925 369.453 205.042 369.688C205.165 369.917 205.226 370.195 205.226 370.52C205.226 370.893 205.159 371.24 205.026 371.56C204.893 371.875 204.695 372.149 204.434 372.384C204.173 372.613 203.853 372.795 203.474 372.928C203.095 373.061 202.658 373.128 202.162 373.128C201.597 373.128 201.085 373.037 200.626 372.856C200.167 372.669 199.778 372.432 199.458 372.144L199.794 371.6C199.837 371.531 199.887 371.477 199.946 371.44C200.005 371.403 200.079 371.384 200.17 371.384C200.266 371.384 200.367 371.421 200.474 371.496C200.581 371.571 200.709 371.653 200.858 371.744C201.013 371.835 201.199 371.917 201.418 371.992C201.637 372.067 201.909 372.104 202.234 372.104C202.511 372.104 202.754 372.069 202.962 372C203.17 371.925 203.343 371.827 203.482 371.704C203.621 371.581 203.722 371.44 203.786 371.28C203.855 371.12 203.89 370.949 203.89 370.768C203.89 370.544 203.829 370.36 203.706 370.216C203.589 370.067 203.431 369.941 203.234 369.84C203.037 369.733 202.81 369.643 202.554 369.568C202.303 369.488 202.045 369.405 201.778 369.32C201.517 369.235 201.258 369.139 201.002 369.032C200.751 368.92 200.527 368.781 200.33 368.616C200.133 368.451 199.973 368.248 199.85 368.008C199.733 367.763 199.674 367.467 199.674 367.12C199.674 366.811 199.738 366.515 199.866 366.232C199.994 365.944 200.181 365.693 200.426 365.48C200.671 365.261 200.973 365.088 201.33 364.96C201.687 364.832 202.095 364.768 202.554 364.768C203.087 364.768 203.565 364.853 203.986 365.024C204.413 365.189 204.781 365.419 205.09 365.712L204.77 366.232ZM211.692 366.232C211.628 366.349 211.529 366.408 211.396 366.408C211.316 366.408 211.225 366.379 211.124 366.32C211.022 366.261 210.897 366.197 210.748 366.128C210.604 366.053 210.43 365.987 210.228 365.928C210.025 365.864 209.785 365.832 209.508 365.832C209.268 365.832 209.052 365.864 208.86 365.928C208.668 365.987 208.502 366.069 208.364 366.176C208.23 366.283 208.126 366.408 208.052 366.552C207.982 366.691 207.948 366.843 207.948 367.008C207.948 367.216 208.006 367.389 208.124 367.528C208.246 367.667 208.406 367.787 208.604 367.888C208.801 367.989 209.025 368.08 209.276 368.16C209.526 368.235 209.782 368.317 210.044 368.408C210.31 368.493 210.569 368.589 210.82 368.696C211.07 368.803 211.294 368.936 211.492 369.096C211.689 369.256 211.846 369.453 211.964 369.688C212.086 369.917 212.148 370.195 212.148 370.52C212.148 370.893 212.081 371.24 211.948 371.56C211.814 371.875 211.617 372.149 211.356 372.384C211.094 372.613 210.774 372.795 210.396 372.928C210.017 373.061 209.58 373.128 209.084 373.128C208.518 373.128 208.006 373.037 207.548 372.856C207.089 372.669 206.7 372.432 206.38 372.144L206.716 371.6C206.758 371.531 206.809 371.477 206.868 371.44C206.926 371.403 207.001 371.384 207.092 371.384C207.188 371.384 207.289 371.421 207.396 371.496C207.502 371.571 207.63 371.653 207.78 371.744C207.934 371.835 208.121 371.917 208.34 371.992C208.558 372.067 208.83 372.104 209.156 372.104C209.433 372.104 209.676 372.069 209.884 372C210.092 371.925 210.265 371.827 210.404 371.704C210.542 371.581 210.644 371.44 210.708 371.28C210.777 371.12 210.812 370.949 210.812 370.768C210.812 370.544 210.75 370.36 210.628 370.216C210.51 370.067 210.353 369.941 210.156 369.84C209.958 369.733 209.732 369.643 209.476 369.568C209.225 369.488 208.966 369.405 208.7 369.32C208.438 369.235 208.18 369.139 207.924 369.032C207.673 368.92 207.449 368.781 207.252 368.616C207.054 368.451 206.894 368.248 206.772 368.008C206.654 367.763 206.596 367.467 206.596 367.12C206.596 366.811 206.66 366.515 206.788 366.232C206.916 365.944 207.102 365.693 207.348 365.48C207.593 365.261 207.894 365.088 208.252 364.96C208.609 364.832 209.017 364.768 209.476 364.768C210.009 364.768 210.486 364.853 210.908 365.024C211.334 365.189 211.702 365.419 212.012 365.712L211.692 366.232ZM225.07 364.896L222.446 373H221.318C221.179 373 221.083 372.909 221.03 372.728L219.238 367.232C219.195 367.109 219.16 366.987 219.134 366.864C219.107 366.736 219.08 366.611 219.054 366.488C219.027 366.611 219 366.736 218.974 366.864C218.947 366.987 218.912 367.112 218.87 367.24L217.046 372.728C216.998 372.909 216.891 373 216.726 373H215.654L213.03 364.896H214.15C214.262 364.896 214.355 364.925 214.43 364.984C214.51 365.043 214.563 365.112 214.59 365.192L216.142 370.408C216.232 370.792 216.304 371.155 216.358 371.496C216.406 371.32 216.454 371.141 216.502 370.96C216.555 370.779 216.611 370.595 216.67 370.408L218.382 365.16C218.408 365.08 218.454 365.013 218.518 364.96C218.587 364.907 218.67 364.88 218.766 364.88H219.39C219.496 364.88 219.584 364.907 219.654 364.96C219.723 365.013 219.771 365.08 219.798 365.16L221.47 370.408C221.528 370.595 221.582 370.779 221.63 370.96C221.678 371.141 221.723 371.32 221.766 371.496C221.792 371.32 221.824 371.144 221.862 370.968C221.904 370.787 221.95 370.6 221.998 370.408L223.582 365.192C223.608 365.107 223.659 365.037 223.734 364.984C223.808 364.925 223.896 364.896 223.998 364.896H225.07ZM229.763 364.768C230.355 364.768 230.888 364.867 231.363 365.064C231.837 365.261 232.243 365.541 232.579 365.904C232.915 366.267 233.171 366.707 233.347 367.224C233.528 367.736 233.619 368.309 233.619 368.944C233.619 369.584 233.528 370.16 233.347 370.672C233.171 371.184 232.915 371.621 232.579 371.984C232.243 372.347 231.837 372.627 231.363 372.824C230.888 373.016 230.355 373.112 229.763 373.112C229.165 373.112 228.627 373.016 228.147 372.824C227.672 372.627 227.267 372.347 226.931 371.984C226.595 371.621 226.336 371.184 226.155 370.672C225.979 370.16 225.891 369.584 225.891 368.944C225.891 368.309 225.979 367.736 226.155 367.224C226.336 366.707 226.595 366.267 226.931 365.904C227.267 365.541 227.672 365.261 228.147 365.064C228.627 364.867 229.165 364.768 229.763 364.768ZM229.763 372C230.563 372 231.16 371.733 231.555 371.2C231.949 370.661 232.147 369.912 232.147 368.952C232.147 367.987 231.949 367.235 231.555 366.696C231.16 366.157 230.563 365.888 229.763 365.888C229.357 365.888 229.003 365.957 228.699 366.096C228.4 366.235 228.149 366.435 227.947 366.696C227.749 366.957 227.6 367.28 227.499 367.664C227.403 368.043 227.355 368.472 227.355 368.952C227.355 369.912 227.552 370.661 227.947 371.2C228.347 371.733 228.952 372 229.763 372ZM236.777 366.52C237.033 365.965 237.348 365.533 237.721 365.224C238.094 364.909 238.55 364.752 239.089 364.752C239.26 364.752 239.422 364.771 239.577 364.808C239.737 364.845 239.878 364.904 240.001 364.984L239.897 366.048C239.865 366.181 239.785 366.248 239.657 366.248C239.582 366.248 239.473 366.232 239.329 366.2C239.185 366.168 239.022 366.152 238.841 366.152C238.585 366.152 238.356 366.189 238.153 366.264C237.956 366.339 237.777 366.451 237.617 366.6C237.462 366.744 237.321 366.925 237.193 367.144C237.07 367.357 236.958 367.603 236.857 367.88V373H235.425V364.896H236.241C236.396 364.896 236.502 364.925 236.561 364.984C236.62 365.043 236.66 365.144 236.681 365.288L236.777 366.52ZM246.221 366.824C245.954 366.467 245.666 366.219 245.357 366.08C245.047 365.936 244.701 365.864 244.317 365.864C243.565 365.864 242.986 366.133 242.581 366.672C242.175 367.211 241.973 367.979 241.973 368.976C241.973 369.504 242.018 369.957 242.109 370.336C242.199 370.709 242.333 371.019 242.509 371.264C242.685 371.504 242.901 371.68 243.157 371.792C243.413 371.904 243.703 371.96 244.029 371.96C244.498 371.96 244.906 371.853 245.253 371.64C245.605 371.427 245.927 371.125 246.221 370.736V366.824ZM247.645 361.216V373H246.797C246.594 373 246.466 372.901 246.413 372.704L246.285 371.72C245.938 372.136 245.543 372.472 245.101 372.728C244.658 372.984 244.146 373.112 243.565 373.112C243.101 373.112 242.679 373.024 242.301 372.848C241.922 372.667 241.599 372.403 241.333 372.056C241.066 371.709 240.861 371.277 240.717 370.76C240.573 370.243 240.501 369.648 240.501 368.976C240.501 368.379 240.581 367.824 240.741 367.312C240.901 366.795 241.13 366.347 241.429 365.968C241.727 365.589 242.093 365.293 242.525 365.08C242.962 364.861 243.453 364.752 243.997 364.752C244.493 364.752 244.917 364.837 245.269 365.008C245.626 365.173 245.943 365.405 246.221 365.704V361.216H247.645Z" fill="#767676"/>
<rect x="171" y="354" width="198" height="25" rx="3" stroke="#AAAAAA" stroke-width="2"/>
<rect x="171" y="311" width="198" height="25" rx="3" fill="white"/>
<path d="M188.552 325.064C188.552 324.733 188.504 324.432 188.408 324.16C188.317 323.883 188.181 323.645 188 323.448C187.824 323.245 187.608 323.091 187.352 322.984C187.096 322.872 186.805 322.816 186.48 322.816C185.797 322.816 185.256 323.016 184.856 323.416C184.461 323.811 184.216 324.36 184.12 325.064H188.552ZM189.704 328.864C189.528 329.077 189.317 329.264 189.072 329.424C188.827 329.579 188.563 329.707 188.28 329.808C188.003 329.909 187.715 329.984 187.416 330.032C187.117 330.085 186.821 330.112 186.528 330.112C185.968 330.112 185.451 330.019 184.976 329.832C184.507 329.64 184.099 329.363 183.752 329C183.411 328.632 183.144 328.179 182.952 327.64C182.76 327.101 182.664 326.483 182.664 325.784C182.664 325.219 182.749 324.691 182.92 324.2C183.096 323.709 183.347 323.285 183.672 322.928C183.997 322.565 184.395 322.283 184.864 322.08C185.333 321.872 185.861 321.768 186.448 321.768C186.933 321.768 187.381 321.851 187.792 322.016C188.208 322.176 188.565 322.411 188.864 322.72C189.168 323.024 189.405 323.403 189.576 323.856C189.747 324.304 189.832 324.816 189.832 325.392C189.832 325.616 189.808 325.765 189.76 325.84C189.712 325.915 189.621 325.952 189.488 325.952H184.072C184.088 326.464 184.157 326.909 184.28 327.288C184.408 327.667 184.584 327.984 184.808 328.24C185.032 328.491 185.299 328.68 185.608 328.808C185.917 328.931 186.264 328.992 186.648 328.992C187.005 328.992 187.312 328.952 187.568 328.872C187.829 328.787 188.053 328.696 188.24 328.6C188.427 328.504 188.581 328.416 188.704 328.336C188.832 328.251 188.941 328.208 189.032 328.208C189.149 328.208 189.24 328.253 189.304 328.344L189.704 328.864ZM191.581 330V321.896H192.437C192.64 321.896 192.765 321.995 192.813 322.192L192.917 323.024C193.216 322.656 193.552 322.355 193.925 322.12C194.298 321.885 194.73 321.768 195.221 321.768C195.765 321.768 196.205 321.92 196.541 322.224C196.882 322.528 197.128 322.939 197.277 323.456C197.394 323.163 197.544 322.909 197.725 322.696C197.912 322.483 198.12 322.307 198.349 322.168C198.578 322.029 198.821 321.928 199.077 321.864C199.338 321.8 199.602 321.768 199.869 321.768C200.296 321.768 200.674 321.837 201.005 321.976C201.341 322.109 201.624 322.307 201.853 322.568C202.088 322.829 202.266 323.152 202.389 323.536C202.512 323.915 202.573 324.349 202.573 324.84V330H201.141V324.84C201.141 324.205 201.002 323.725 200.725 323.4C200.448 323.069 200.048 322.904 199.525 322.904C199.29 322.904 199.066 322.947 198.853 323.032C198.645 323.112 198.461 323.232 198.301 323.392C198.141 323.552 198.013 323.755 197.917 324C197.826 324.24 197.781 324.52 197.781 324.84V330H196.349V324.84C196.349 324.189 196.218 323.704 195.957 323.384C195.696 323.064 195.314 322.904 194.813 322.904C194.461 322.904 194.136 323 193.837 323.192C193.538 323.379 193.264 323.635 193.013 323.96V330H191.581ZM209.129 326.352C208.473 326.373 207.913 326.427 207.449 326.512C206.991 326.592 206.615 326.699 206.321 326.832C206.033 326.965 205.823 327.123 205.689 327.304C205.561 327.485 205.497 327.688 205.497 327.912C205.497 328.125 205.532 328.309 205.601 328.464C205.671 328.619 205.764 328.747 205.881 328.848C206.004 328.944 206.145 329.016 206.305 329.064C206.471 329.107 206.647 329.128 206.833 329.128C207.084 329.128 207.313 329.104 207.521 329.056C207.729 329.003 207.924 328.928 208.105 328.832C208.292 328.736 208.468 328.621 208.633 328.488C208.804 328.355 208.969 328.203 209.129 328.032V326.352ZM204.529 323.04C204.977 322.608 205.46 322.285 205.977 322.072C206.495 321.859 207.068 321.752 207.697 321.752C208.151 321.752 208.553 321.827 208.905 321.976C209.257 322.125 209.553 322.333 209.793 322.6C210.033 322.867 210.215 323.189 210.337 323.568C210.46 323.947 210.521 324.363 210.521 324.816V330H209.889C209.751 330 209.644 329.979 209.569 329.936C209.495 329.888 209.436 329.797 209.393 329.664L209.233 328.896C209.02 329.093 208.812 329.269 208.609 329.424C208.407 329.573 208.193 329.701 207.969 329.808C207.745 329.909 207.505 329.987 207.249 330.04C206.999 330.099 206.719 330.128 206.409 330.128C206.095 330.128 205.799 330.085 205.521 330C205.244 329.909 205.001 329.776 204.793 329.6C204.591 329.424 204.428 329.203 204.305 328.936C204.188 328.664 204.129 328.344 204.129 327.976C204.129 327.656 204.217 327.349 204.393 327.056C204.569 326.757 204.855 326.493 205.249 326.264C205.644 326.035 206.159 325.848 206.793 325.704C207.428 325.555 208.207 325.469 209.129 325.448V324.816C209.129 324.187 208.993 323.712 208.721 323.392C208.449 323.067 208.052 322.904 207.529 322.904C207.177 322.904 206.881 322.949 206.641 323.04C206.407 323.125 206.201 323.224 206.025 323.336C205.855 323.443 205.705 323.541 205.577 323.632C205.455 323.717 205.332 323.76 205.209 323.76C205.113 323.76 205.031 323.736 204.961 323.688C204.892 323.635 204.833 323.571 204.785 323.496L204.529 323.04ZM214.195 321.896V330H212.771V321.896H214.195ZM214.499 319.352C214.499 319.491 214.469 319.621 214.411 319.744C214.357 319.861 214.283 319.968 214.187 320.064C214.096 320.155 213.987 320.227 213.859 320.28C213.736 320.333 213.605 320.36 213.467 320.36C213.328 320.36 213.197 320.333 213.075 320.28C212.957 320.227 212.853 320.155 212.763 320.064C212.672 319.968 212.6 319.861 212.547 319.744C212.493 319.621 212.467 319.491 212.467 319.352C212.467 319.213 212.493 319.083 212.547 318.96C212.6 318.832 212.672 318.723 212.763 318.632C212.853 318.536 212.957 318.461 213.075 318.408C213.197 318.355 213.328 318.328 213.467 318.328C213.605 318.328 213.736 318.355 213.859 318.408C213.987 318.461 214.096 318.536 214.187 318.632C214.283 318.723 214.357 318.832 214.411 318.96C214.469 319.083 214.499 319.213 214.499 319.352ZM218.006 318.216V330H216.582V318.216H218.006Z" fill="#767676"/>
<rect x="171" y="311" width="198" height="25" rx="3" stroke="#AAAAAA" stroke-width="2"/>
<rect x="171" y="268" width="198" height="25" rx="3" fill="white"/>
<path d="M192.752 275.536V287H191.976C191.853 287 191.749 286.979 191.664 286.936C191.584 286.893 191.504 286.821 191.424 286.72L184.792 278.08C184.803 278.213 184.811 278.344 184.816 278.472C184.821 278.6 184.824 278.72 184.824 278.832V287H183.464V275.536H184.264C184.333 275.536 184.392 275.541 184.44 275.552C184.488 275.557 184.531 275.571 184.568 275.592C184.605 275.608 184.643 275.635 184.68 275.672C184.717 275.704 184.757 275.747 184.8 275.8L191.432 284.432C191.421 284.293 191.411 284.16 191.4 284.032C191.395 283.899 191.392 283.773 191.392 283.656V275.536H192.752ZM199.504 283.352C198.848 283.373 198.288 283.427 197.824 283.512C197.366 283.592 196.99 283.699 196.696 283.832C196.408 283.965 196.198 284.123 196.064 284.304C195.936 284.485 195.872 284.688 195.872 284.912C195.872 285.125 195.907 285.309 195.976 285.464C196.046 285.619 196.139 285.747 196.256 285.848C196.379 285.944 196.52 286.016 196.68 286.064C196.846 286.107 197.022 286.128 197.208 286.128C197.459 286.128 197.688 286.104 197.896 286.056C198.104 286.003 198.299 285.928 198.48 285.832C198.667 285.736 198.843 285.621 199.008 285.488C199.179 285.355 199.344 285.203 199.504 285.032V283.352ZM194.904 280.04C195.352 279.608 195.835 279.285 196.352 279.072C196.87 278.859 197.443 278.752 198.072 278.752C198.526 278.752 198.928 278.827 199.28 278.976C199.632 279.125 199.928 279.333 200.168 279.6C200.408 279.867 200.59 280.189 200.712 280.568C200.835 280.947 200.896 281.363 200.896 281.816V287H200.264C200.126 287 200.019 286.979 199.944 286.936C199.87 286.888 199.811 286.797 199.768 286.664L199.608 285.896C199.395 286.093 199.187 286.269 198.984 286.424C198.782 286.573 198.568 286.701 198.344 286.808C198.12 286.909 197.88 286.987 197.624 287.04C197.374 287.099 197.094 287.128 196.784 287.128C196.47 287.128 196.174 287.085 195.896 287C195.619 286.909 195.376 286.776 195.168 286.6C194.966 286.424 194.803 286.203 194.68 285.936C194.563 285.664 194.504 285.344 194.504 284.976C194.504 284.656 194.592 284.349 194.768 284.056C194.944 283.757 195.23 283.493 195.624 283.264C196.019 283.035 196.534 282.848 197.168 282.704C197.803 282.555 198.582 282.469 199.504 282.448V281.816C199.504 281.187 199.368 280.712 199.096 280.392C198.824 280.067 198.427 279.904 197.904 279.904C197.552 279.904 197.256 279.949 197.016 280.04C196.782 280.125 196.576 280.224 196.4 280.336C196.23 280.443 196.08 280.541 195.952 280.632C195.83 280.717 195.707 280.76 195.584 280.76C195.488 280.76 195.406 280.736 195.336 280.688C195.267 280.635 195.208 280.571 195.16 280.496L194.904 280.04ZM203.066 287V278.896H203.922C204.124 278.896 204.25 278.995 204.298 279.192L204.402 280.024C204.7 279.656 205.036 279.355 205.41 279.12C205.783 278.885 206.215 278.768 206.706 278.768C207.25 278.768 207.69 278.92 208.026 279.224C208.367 279.528 208.612 279.939 208.762 280.456C208.879 280.163 209.028 279.909 209.21 279.696C209.396 279.483 209.604 279.307 209.834 279.168C210.063 279.029 210.306 278.928 210.562 278.864C210.823 278.8 211.087 278.768 211.354 278.768C211.78 278.768 212.159 278.837 212.49 278.976C212.826 279.109 213.108 279.307 213.338 279.568C213.572 279.829 213.751 280.152 213.874 280.536C213.996 280.915 214.058 281.349 214.058 281.84V287H212.626V281.84C212.626 281.205 212.487 280.725 212.21 280.4C211.932 280.069 211.532 279.904 211.01 279.904C210.775 279.904 210.551 279.947 210.338 280.032C210.13 280.112 209.946 280.232 209.786 280.392C209.626 280.552 209.498 280.755 209.402 281C209.311 281.24 209.266 281.52 209.266 281.84V287H207.834V281.84C207.834 281.189 207.703 280.704 207.442 280.384C207.18 280.064 206.799 279.904 206.298 279.904C205.946 279.904 205.62 280 205.322 280.192C205.023 280.379 204.748 280.635 204.498 280.96V287H203.066ZM221.646 282.064C221.646 281.733 221.598 281.432 221.502 281.16C221.411 280.883 221.275 280.645 221.094 280.448C220.918 280.245 220.702 280.091 220.446 279.984C220.19 279.872 219.899 279.816 219.574 279.816C218.891 279.816 218.35 280.016 217.95 280.416C217.555 280.811 217.31 281.36 217.214 282.064H221.646ZM222.798 285.864C222.622 286.077 222.411 286.264 222.166 286.424C221.92 286.579 221.656 286.707 221.374 286.808C221.096 286.909 220.808 286.984 220.51 287.032C220.211 287.085 219.915 287.112 219.622 287.112C219.062 287.112 218.544 287.019 218.07 286.832C217.6 286.64 217.192 286.363 216.846 286C216.504 285.632 216.238 285.179 216.046 284.64C215.854 284.101 215.758 283.483 215.758 282.784C215.758 282.219 215.843 281.691 216.014 281.2C216.19 280.709 216.44 280.285 216.766 279.928C217.091 279.565 217.488 279.283 217.958 279.08C218.427 278.872 218.955 278.768 219.542 278.768C220.027 278.768 220.475 278.851 220.886 279.016C221.302 279.176 221.659 279.411 221.958 279.72C222.262 280.024 222.499 280.403 222.67 280.856C222.84 281.304 222.926 281.816 222.926 282.392C222.926 282.616 222.902 282.765 222.854 282.84C222.806 282.915 222.715 282.952 222.582 282.952H217.166C217.182 283.464 217.251 283.909 217.374 284.288C217.502 284.667 217.678 284.984 217.902 285.24C218.126 285.491 218.392 285.68 218.702 285.808C219.011 285.931 219.358 285.992 219.742 285.992C220.099 285.992 220.406 285.952 220.662 285.872C220.923 285.787 221.147 285.696 221.334 285.6C221.52 285.504 221.675 285.416 221.798 285.336C221.926 285.251 222.035 285.208 222.126 285.208C222.243 285.208 222.334 285.253 222.398 285.344L222.798 285.864Z" fill="#767676"/>
<rect x="171" y="268" width="198" height="25" rx="3" stroke="#AAAAAA" stroke-width="2"/>
<path d="M245.24 207.06C245.167 207.18 245.09 207.27 245.01 207.33C244.93 207.383 244.83 207.41 244.71 207.41C244.583 207.41 244.44 207.357 244.28 207.25C244.127 207.143 243.933 207.027 243.7 206.9C243.473 206.767 243.203 206.647 242.89 206.54C242.577 206.427 242.203 206.37 241.77 206.37C241.37 206.37 241.017 206.42 240.71 206.52C240.41 206.62 240.157 206.76 239.95 206.94C239.743 207.12 239.587 207.333 239.48 207.58C239.38 207.82 239.33 208.083 239.33 208.37C239.33 208.737 239.427 209.043 239.62 209.29C239.813 209.53 240.067 209.737 240.38 209.91C240.7 210.083 241.063 210.237 241.47 210.37C241.877 210.497 242.29 210.633 242.71 210.78C243.137 210.927 243.553 211.093 243.96 211.28C244.367 211.467 244.727 211.703 245.04 211.99C245.36 212.277 245.617 212.627 245.81 213.04C246.003 213.453 246.1 213.957 246.1 214.55C246.1 215.19 245.99 215.79 245.77 216.35C245.55 216.91 245.23 217.4 244.81 217.82C244.397 218.233 243.883 218.56 243.27 218.8C242.663 219.04 241.97 219.16 241.19 219.16C240.73 219.16 240.28 219.113 239.84 219.02C239.407 218.933 238.99 218.81 238.59 218.65C238.197 218.483 237.827 218.283 237.48 218.05C237.133 217.817 236.823 217.557 236.55 217.27L237.23 216.15C237.29 216.057 237.367 215.983 237.46 215.93C237.553 215.877 237.657 215.85 237.77 215.85C237.923 215.85 238.093 215.923 238.28 216.07C238.467 216.21 238.69 216.367 238.95 216.54C239.217 216.707 239.537 216.863 239.91 217.01C240.283 217.15 240.73 217.22 241.25 217.22C242.097 217.22 242.75 217.013 243.21 216.6C243.677 216.187 243.91 215.617 243.91 214.89C243.91 214.483 243.813 214.153 243.62 213.9C243.427 213.64 243.17 213.423 242.85 213.25C242.537 213.077 242.177 212.93 241.77 212.81C241.363 212.69 240.95 212.563 240.53 212.43C240.11 212.29 239.697 212.13 239.29 211.95C238.883 211.763 238.52 211.523 238.2 211.23C237.887 210.93 237.633 210.563 237.44 210.13C237.247 209.69 237.15 209.143 237.15 208.49C237.15 207.97 237.25 207.467 237.45 206.98C237.657 206.493 237.953 206.063 238.34 205.69C238.733 205.31 239.217 205.007 239.79 204.78C240.363 204.553 241.017 204.44 241.75 204.44C242.577 204.44 243.333 204.57 244.02 204.83C244.713 205.09 245.31 205.46 245.81 205.94L245.24 207.06ZM250.39 208.8V219H248.24V208.8H250.39ZM250.75 205.72C250.75 205.913 250.71 206.097 250.63 206.27C250.557 206.443 250.453 206.597 250.32 206.73C250.187 206.857 250.03 206.96 249.85 207.04C249.677 207.113 249.49 207.15 249.29 207.15C249.097 207.15 248.913 207.113 248.74 207.04C248.573 206.96 248.427 206.857 248.3 206.73C248.173 206.597 248.07 206.443 247.99 206.27C247.917 206.097 247.88 205.913 247.88 205.72C247.88 205.52 247.917 205.333 247.99 205.16C248.07 204.987 248.173 204.837 248.3 204.71C248.427 204.577 248.573 204.473 248.74 204.4C248.913 204.32 249.097 204.28 249.29 204.28C249.49 204.28 249.677 204.32 249.85 204.4C250.03 204.473 250.187 204.577 250.32 204.71C250.453 204.837 250.557 204.987 250.63 205.16C250.71 205.333 250.75 205.52 250.75 205.72ZM256.731 213.81C257.398 213.81 257.898 213.64 258.231 213.3C258.565 212.96 258.731 212.517 258.731 211.97C258.731 211.41 258.565 210.967 258.231 210.64C257.898 210.313 257.398 210.15 256.731 210.15C256.071 210.15 255.571 210.313 255.231 210.64C254.898 210.967 254.731 211.41 254.731 211.97C254.731 212.237 254.775 212.483 254.861 212.71C254.948 212.937 255.075 213.133 255.241 213.3C255.408 213.46 255.615 213.587 255.861 213.68C256.115 213.767 256.405 213.81 256.731 213.81ZM259.721 219.5C259.721 219.273 259.655 219.093 259.521 218.96C259.395 218.82 259.221 218.713 259.001 218.64C258.781 218.56 258.525 218.503 258.231 218.47C257.938 218.43 257.625 218.403 257.291 218.39C256.965 218.37 256.628 218.353 256.281 218.34C255.941 218.32 255.611 218.287 255.291 218.24C254.971 218.407 254.708 218.607 254.501 218.84C254.301 219.073 254.201 219.343 254.201 219.65C254.201 219.85 254.251 220.037 254.351 220.21C254.458 220.383 254.618 220.533 254.831 220.66C255.051 220.787 255.328 220.887 255.661 220.96C256.001 221.033 256.408 221.07 256.881 221.07C257.828 221.07 258.538 220.923 259.011 220.63C259.485 220.337 259.721 219.96 259.721 219.5ZM261.881 209.17V209.97C261.881 210.237 261.721 210.4 261.401 210.46L260.381 210.63C260.555 211.017 260.641 211.447 260.641 211.92C260.641 212.42 260.541 212.873 260.341 213.28C260.148 213.687 259.878 214.033 259.531 214.32C259.185 214.607 258.771 214.827 258.291 214.98C257.811 215.133 257.291 215.21 256.731 215.21C256.518 215.21 256.308 215.2 256.101 215.18C255.901 215.153 255.705 215.12 255.511 215.08C255.318 215.193 255.175 215.313 255.081 215.44C254.988 215.567 254.941 215.697 254.941 215.83C254.941 216.05 255.038 216.213 255.231 216.32C255.425 216.427 255.678 216.503 255.991 216.55C256.311 216.597 256.675 216.627 257.081 216.64C257.488 216.653 257.901 216.677 258.321 216.71C258.741 216.743 259.155 216.8 259.561 216.88C259.968 216.953 260.328 217.08 260.641 217.26C260.961 217.433 261.218 217.67 261.411 217.97C261.605 218.27 261.701 218.66 261.701 219.14C261.701 219.58 261.591 220.01 261.371 220.43C261.151 220.85 260.831 221.223 260.411 221.55C259.998 221.877 259.491 222.137 258.891 222.33C258.291 222.53 257.608 222.63 256.841 222.63C256.081 222.63 255.418 222.557 254.851 222.41C254.291 222.263 253.821 222.063 253.441 221.81C253.068 221.563 252.788 221.277 252.601 220.95C252.421 220.623 252.331 220.283 252.331 219.93C252.331 219.45 252.481 219.04 252.781 218.7C253.088 218.36 253.501 218.093 254.021 217.9C253.741 217.767 253.515 217.583 253.341 217.35C253.175 217.117 253.091 216.81 253.091 216.43C253.091 216.13 253.201 215.817 253.421 215.49C253.641 215.163 253.971 214.887 254.411 214.66C253.905 214.38 253.505 214.01 253.211 213.55C252.918 213.083 252.771 212.54 252.771 211.92C252.771 211.413 252.868 210.957 253.061 210.55C253.261 210.143 253.538 209.797 253.891 209.51C254.245 209.223 254.661 209.003 255.141 208.85C255.628 208.697 256.158 208.62 256.731 208.62C257.611 208.62 258.378 208.803 259.031 209.17H261.881ZM265.59 210.15C265.81 209.923 266.036 209.72 266.27 209.54C266.51 209.353 266.763 209.193 267.03 209.06C267.296 208.927 267.58 208.823 267.88 208.75C268.18 208.677 268.506 208.64 268.86 208.64C269.42 208.64 269.91 208.733 270.33 208.92C270.756 209.107 271.113 209.37 271.4 209.71C271.693 210.05 271.913 210.46 272.06 210.94C272.206 211.413 272.28 211.937 272.28 212.51V219H270.14V212.51C270.14 211.823 269.98 211.29 269.66 210.91C269.346 210.53 268.866 210.34 268.22 210.34C267.74 210.34 267.293 210.45 266.88 210.67C266.473 210.89 266.09 211.19 265.73 211.57V219H263.58V208.8H264.88C265.173 208.8 265.36 208.937 265.44 209.21L265.59 210.15ZM285.851 217.11C286.404 217.11 286.898 217.017 287.331 216.83C287.771 216.643 288.141 216.383 288.441 216.05C288.748 215.717 288.981 215.317 289.141 214.85C289.301 214.377 289.381 213.853 289.381 213.28V204.6H291.711V213.28C291.711 214.127 291.574 214.91 291.301 215.63C291.034 216.35 290.648 216.973 290.141 217.5C289.634 218.02 289.018 218.43 288.291 218.73C287.571 219.023 286.758 219.17 285.851 219.17C284.944 219.17 284.128 219.023 283.401 218.73C282.681 218.43 282.068 218.02 281.561 217.5C281.054 216.973 280.664 216.35 280.391 215.63C280.124 214.91 279.991 214.127 279.991 213.28V204.6H282.331V213.27C282.331 213.843 282.411 214.367 282.571 214.84C282.731 215.307 282.961 215.71 283.261 216.05C283.561 216.383 283.928 216.643 284.361 216.83C284.801 217.017 285.298 217.11 285.851 217.11ZM296.394 216.44C296.694 216.827 297.02 217.1 297.374 217.26C297.734 217.413 298.13 217.49 298.564 217.49C299.404 217.49 300.057 217.183 300.524 216.57C300.997 215.957 301.234 215.043 301.234 213.83C301.234 213.203 301.18 212.67 301.074 212.23C300.967 211.783 300.814 211.42 300.614 211.14C300.414 210.86 300.17 210.657 299.884 210.53C299.597 210.403 299.274 210.34 298.914 210.34C298.367 210.34 297.894 210.46 297.494 210.7C297.1 210.933 296.734 211.27 296.394 211.71V216.44ZM296.284 210.28C296.71 209.78 297.194 209.377 297.734 209.07C298.28 208.763 298.914 208.61 299.634 208.61C300.207 208.61 300.727 208.727 301.194 208.96C301.66 209.187 302.06 209.52 302.394 209.96C302.727 210.4 302.984 210.947 303.164 211.6C303.35 212.247 303.444 212.99 303.444 213.83C303.444 214.583 303.34 215.287 303.134 215.94C302.934 216.587 302.644 217.15 302.264 217.63C301.884 218.103 301.424 218.477 300.884 218.75C300.344 219.017 299.734 219.15 299.054 219.15C298.454 219.15 297.944 219.053 297.524 218.86C297.11 218.667 296.734 218.4 296.394 218.06V222.39H294.244V208.8H295.544C295.837 208.8 296.024 208.937 296.104 209.21L296.284 210.28Z" fill="black"/>
<path d="M176.804 239.402L174.788 234.397C174.718 234.234 174.65 234.038 174.585 233.809C174.557 233.921 174.527 234.028 174.494 234.131C174.461 234.229 174.426 234.32 174.389 234.404L172.373 239.402H176.804ZM178.995 243H178.442C178.377 243 178.323 242.984 178.281 242.951C178.239 242.914 178.206 242.867 178.183 242.811L177.021 239.934H172.156L170.994 242.811C170.975 242.862 170.943 242.907 170.896 242.944C170.849 242.981 170.793 243 170.728 243H170.182L174.235 233.095H174.942L178.995 243ZM181.002 232.815V243H180.33V232.815H181.002ZM183.994 237.715C184.101 237.43 184.223 237.178 184.358 236.959C184.498 236.735 184.657 236.546 184.834 236.392C185.016 236.238 185.217 236.121 185.436 236.042C185.66 235.958 185.907 235.916 186.178 235.916C186.323 235.916 186.465 235.93 186.605 235.958C186.745 235.981 186.869 236.026 186.976 236.091L186.92 236.553C186.897 236.628 186.852 236.665 186.787 236.665C186.731 236.665 186.645 236.649 186.528 236.616C186.416 236.583 186.267 236.567 186.08 236.567C185.809 236.567 185.569 236.609 185.359 236.693C185.154 236.772 184.967 236.894 184.799 237.057C184.636 237.22 184.491 237.423 184.365 237.666C184.244 237.904 184.132 238.179 184.029 238.492V243H183.357V236.035H183.714C183.793 236.035 183.849 236.051 183.882 236.084C183.915 236.117 183.936 236.173 183.945 236.252L183.994 237.715ZM192.796 238.814C192.796 238.441 192.742 238.107 192.635 237.813C192.532 237.514 192.385 237.262 192.194 237.057C192.002 236.852 191.774 236.695 191.508 236.588C191.246 236.476 190.957 236.42 190.64 236.42C190.28 236.42 189.958 236.476 189.674 236.588C189.389 236.7 189.142 236.861 188.932 237.071C188.726 237.281 188.561 237.533 188.435 237.827C188.309 238.121 188.225 238.45 188.183 238.814H192.796ZM188.148 239.241V239.374C188.148 239.897 188.208 240.356 188.33 240.753C188.451 241.15 188.624 241.483 188.848 241.754C189.072 242.02 189.342 242.221 189.66 242.356C189.977 242.491 190.332 242.559 190.724 242.559C191.074 242.559 191.377 242.522 191.634 242.447C191.89 242.368 192.105 242.281 192.278 242.188C192.455 242.09 192.595 242.004 192.698 241.929C192.8 241.85 192.875 241.81 192.922 241.81C192.982 241.81 193.029 241.833 193.062 241.88L193.244 242.104C193.132 242.244 192.982 242.375 192.796 242.496C192.614 242.617 192.408 242.722 192.18 242.811C191.956 242.895 191.713 242.963 191.452 243.014C191.195 243.065 190.936 243.091 190.675 243.091C190.199 243.091 189.765 243.009 189.373 242.846C188.981 242.678 188.645 242.435 188.365 242.118C188.085 241.801 187.868 241.413 187.714 240.956C187.564 240.494 187.49 239.967 187.49 239.374C187.49 238.875 187.56 238.415 187.7 237.995C187.844 237.57 188.05 237.206 188.316 236.903C188.586 236.595 188.915 236.355 189.303 236.182C189.695 236.009 190.138 235.923 190.633 235.923C191.025 235.923 191.389 235.991 191.725 236.126C192.061 236.261 192.352 236.46 192.6 236.721C192.847 236.978 193.041 237.295 193.181 237.673C193.325 238.051 193.398 238.485 193.398 238.975C193.398 239.078 193.384 239.148 193.356 239.185C193.328 239.222 193.281 239.241 193.216 239.241H188.148ZM199.11 239.633C198.447 239.656 197.875 239.71 197.395 239.794C196.919 239.873 196.524 239.983 196.212 240.123C195.904 240.263 195.675 240.431 195.526 240.627C195.376 240.818 195.302 241.038 195.302 241.285C195.302 241.518 195.339 241.721 195.414 241.894C195.493 242.062 195.596 242.202 195.722 242.314C195.852 242.421 196.002 242.501 196.17 242.552C196.338 242.603 196.513 242.629 196.695 242.629C196.965 242.629 197.213 242.601 197.437 242.545C197.665 242.484 197.875 242.403 198.067 242.3C198.263 242.193 198.445 242.067 198.613 241.922C198.781 241.777 198.946 241.621 199.11 241.453V239.633ZM195.015 237.022C195.379 236.658 195.761 236.383 196.163 236.196C196.564 236.009 197.019 235.916 197.528 235.916C197.901 235.916 198.228 235.977 198.508 236.098C198.788 236.215 199.019 236.385 199.201 236.609C199.387 236.828 199.527 237.097 199.621 237.414C199.714 237.727 199.761 238.077 199.761 238.464V243H199.495C199.355 243 199.268 242.935 199.236 242.804L199.138 241.908C198.946 242.095 198.755 242.263 198.564 242.412C198.377 242.561 198.181 242.687 197.976 242.79C197.77 242.893 197.549 242.972 197.311 243.028C197.073 243.084 196.811 243.112 196.527 243.112C196.289 243.112 196.058 243.077 195.834 243.007C195.61 242.937 195.409 242.83 195.232 242.685C195.059 242.54 194.919 242.356 194.812 242.132C194.709 241.903 194.658 241.63 194.658 241.313C194.658 241.019 194.742 240.746 194.91 240.494C195.078 240.242 195.341 240.023 195.701 239.836C196.06 239.649 196.52 239.5 197.08 239.388C197.644 239.276 198.321 239.211 199.11 239.192V238.464C199.11 237.82 198.97 237.325 198.69 236.98C198.414 236.63 198.004 236.455 197.458 236.455C197.122 236.455 196.835 236.502 196.597 236.595C196.363 236.688 196.165 236.791 196.002 236.903C195.838 237.015 195.705 237.118 195.603 237.211C195.5 237.304 195.414 237.351 195.344 237.351C195.292 237.351 195.25 237.339 195.218 237.316C195.185 237.293 195.157 237.262 195.134 237.225L195.015 237.022ZM206.745 237.533C206.479 237.132 206.182 236.849 205.856 236.686C205.534 236.523 205.165 236.441 204.75 236.441C204.339 236.441 203.98 236.516 203.672 236.665C203.364 236.814 203.105 237.027 202.895 237.302C202.689 237.573 202.533 237.899 202.426 238.282C202.323 238.66 202.272 239.078 202.272 239.535C202.272 240.571 202.461 241.334 202.839 241.824C203.221 242.309 203.772 242.552 204.491 242.552C204.948 242.552 205.366 242.433 205.744 242.195C206.122 241.957 206.455 241.623 206.745 241.194V237.533ZM207.41 232.815V243H207.046C206.924 243 206.854 242.939 206.836 242.818L206.766 241.719C206.458 242.139 206.098 242.473 205.688 242.72C205.277 242.967 204.815 243.091 204.302 243.091C203.443 243.091 202.776 242.795 202.3 242.202C201.824 241.609 201.586 240.72 201.586 239.535C201.586 239.026 201.651 238.553 201.782 238.114C201.917 237.671 202.113 237.288 202.37 236.966C202.626 236.639 202.941 236.383 203.315 236.196C203.693 236.009 204.127 235.916 204.617 235.916C205.088 235.916 205.496 236.002 205.842 236.175C206.187 236.348 206.488 236.604 206.745 236.945V232.815H207.41ZM215.331 236.035L211.327 245.24C211.299 245.305 211.261 245.359 211.215 245.401C211.173 245.443 211.11 245.464 211.026 245.464H210.55L211.775 242.741L208.828 236.035H209.381C209.451 236.035 209.507 236.054 209.549 236.091C209.591 236.124 209.619 236.161 209.633 236.203L211.978 241.621C212.006 241.691 212.029 241.763 212.048 241.838C212.071 241.908 212.092 241.98 212.111 242.055C212.134 241.98 212.157 241.908 212.181 241.838C212.209 241.763 212.237 241.691 212.265 241.621L214.582 236.203C214.605 236.152 214.638 236.112 214.68 236.084C214.722 236.051 214.768 236.035 214.82 236.035H215.331ZM220.861 237.211C221.183 236.819 221.549 236.506 221.96 236.273C222.375 236.04 222.84 235.923 223.353 235.923C223.736 235.923 224.072 235.984 224.361 236.105C224.655 236.226 224.898 236.401 225.089 236.63C225.28 236.859 225.425 237.134 225.523 237.456C225.621 237.778 225.67 238.142 225.67 238.548V243H224.998V238.548C224.998 237.895 224.849 237.384 224.55 237.015C224.251 236.642 223.796 236.455 223.185 236.455C222.732 236.455 222.308 236.572 221.911 236.805C221.519 237.034 221.169 237.353 220.861 237.764V243H220.189V232.815H220.861V237.211ZM231.785 239.633C231.123 239.656 230.551 239.71 230.07 239.794C229.594 239.873 229.2 239.983 228.887 240.123C228.579 240.263 228.351 240.431 228.201 240.627C228.052 240.818 227.977 241.038 227.977 241.285C227.977 241.518 228.015 241.721 228.089 241.894C228.169 242.062 228.271 242.202 228.397 242.314C228.528 242.421 228.677 242.501 228.845 242.552C229.013 242.603 229.188 242.629 229.37 242.629C229.641 242.629 229.888 242.601 230.112 242.545C230.341 242.484 230.551 242.403 230.742 242.3C230.938 242.193 231.12 242.067 231.288 241.922C231.456 241.777 231.622 241.621 231.785 241.453V239.633ZM227.69 237.022C228.054 236.658 228.437 236.383 228.838 236.196C229.24 236.009 229.695 235.916 230.203 235.916C230.577 235.916 230.903 235.977 231.183 236.098C231.463 236.215 231.694 236.385 231.876 236.609C232.063 236.828 232.203 237.097 232.296 237.414C232.39 237.727 232.436 238.077 232.436 238.464V243H232.17C232.03 243 231.944 242.935 231.911 242.804L231.813 241.908C231.622 242.095 231.431 242.263 231.239 242.412C231.053 242.561 230.857 242.687 230.651 242.79C230.446 242.893 230.224 242.972 229.986 243.028C229.748 243.084 229.487 243.112 229.202 243.112C228.964 243.112 228.733 243.077 228.509 243.007C228.285 242.937 228.085 242.83 227.907 242.685C227.735 242.54 227.595 242.356 227.487 242.132C227.385 241.903 227.333 241.63 227.333 241.313C227.333 241.019 227.417 240.746 227.585 240.494C227.753 240.242 228.017 240.023 228.376 239.836C228.736 239.649 229.195 239.5 229.755 239.388C230.32 239.276 230.997 239.211 231.785 239.192V238.464C231.785 237.82 231.645 237.325 231.365 236.98C231.09 236.63 230.679 236.455 230.133 236.455C229.797 236.455 229.51 236.502 229.272 236.595C229.039 236.688 228.841 236.791 228.677 236.903C228.514 237.015 228.381 237.118 228.278 237.211C228.176 237.304 228.089 237.351 228.019 237.351C227.968 237.351 227.926 237.339 227.893 237.316C227.861 237.293 227.833 237.262 227.809 237.225L227.69 237.022ZM240.151 236.035L237.211 243H236.623L233.683 236.035H234.208C234.273 236.035 234.327 236.054 234.369 236.091C234.411 236.124 234.439 236.161 234.453 236.203L236.756 241.698C236.826 241.903 236.882 242.106 236.924 242.307C236.966 242.106 237.024 241.903 237.099 241.698L239.409 236.203C239.432 236.152 239.463 236.112 239.5 236.084C239.542 236.051 239.591 236.035 239.647 236.035H240.151ZM246.307 238.814C246.307 238.441 246.254 238.107 246.146 237.813C246.044 237.514 245.897 237.262 245.705 237.057C245.514 236.852 245.285 236.695 245.019 236.588C244.758 236.476 244.469 236.42 244.151 236.42C243.792 236.42 243.47 236.476 243.185 236.588C242.901 236.7 242.653 236.861 242.443 237.071C242.238 237.281 242.072 237.533 241.946 237.827C241.82 238.121 241.736 238.45 241.694 238.814H246.307ZM241.659 239.241V239.374C241.659 239.897 241.72 240.356 241.841 240.753C241.963 241.15 242.135 241.483 242.359 241.754C242.583 242.02 242.854 242.221 243.171 242.356C243.489 242.491 243.843 242.559 244.235 242.559C244.585 242.559 244.889 242.522 245.145 242.447C245.402 242.368 245.617 242.281 245.789 242.188C245.967 242.09 246.107 242.004 246.209 241.929C246.312 241.85 246.387 241.81 246.433 241.81C246.494 241.81 246.541 241.833 246.573 241.88L246.755 242.104C246.643 242.244 246.494 242.375 246.307 242.496C246.125 242.617 245.92 242.722 245.691 242.811C245.467 242.895 245.225 242.963 244.963 243.014C244.707 243.065 244.448 243.091 244.186 243.091C243.71 243.091 243.276 243.009 242.884 242.846C242.492 242.678 242.156 242.435 241.876 242.118C241.596 241.801 241.379 241.413 241.225 240.956C241.076 240.494 241.001 239.967 241.001 239.374C241.001 238.875 241.071 238.415 241.211 237.995C241.356 237.57 241.561 237.206 241.827 236.903C242.098 236.595 242.427 236.355 242.814 236.182C243.206 236.009 243.65 235.923 244.144 235.923C244.536 235.923 244.9 235.991 245.236 236.126C245.572 236.261 245.864 236.46 246.111 236.721C246.359 236.978 246.552 237.295 246.692 237.673C246.837 238.051 246.909 238.485 246.909 238.975C246.909 239.078 246.895 239.148 246.867 239.185C246.839 239.222 246.793 239.241 246.727 239.241H241.659ZM256.422 239.633C255.759 239.656 255.188 239.71 254.707 239.794C254.231 239.873 253.837 239.983 253.524 240.123C253.216 240.263 252.987 240.431 252.838 240.627C252.689 240.818 252.614 241.038 252.614 241.285C252.614 241.518 252.651 241.721 252.726 241.894C252.805 242.062 252.908 242.202 253.034 242.314C253.165 242.421 253.314 242.501 253.482 242.552C253.65 242.603 253.825 242.629 254.007 242.629C254.278 242.629 254.525 242.601 254.749 242.545C254.978 242.484 255.188 242.403 255.379 242.3C255.575 242.193 255.757 242.067 255.925 241.922C256.093 241.777 256.259 241.621 256.422 241.453V239.633ZM252.327 237.022C252.691 236.658 253.074 236.383 253.475 236.196C253.876 236.009 254.331 235.916 254.84 235.916C255.213 235.916 255.54 235.977 255.82 236.098C256.1 236.215 256.331 236.385 256.513 236.609C256.7 236.828 256.84 237.097 256.933 237.414C257.026 237.727 257.073 238.077 257.073 238.464V243H256.807C256.667 243 256.581 242.935 256.548 242.804L256.45 241.908C256.259 242.095 256.067 242.263 255.876 242.412C255.689 242.561 255.493 242.687 255.288 242.79C255.083 242.893 254.861 242.972 254.623 243.028C254.385 243.084 254.124 243.112 253.839 243.112C253.601 243.112 253.37 243.077 253.146 243.007C252.922 242.937 252.721 242.83 252.544 242.685C252.371 242.54 252.231 242.356 252.124 242.132C252.021 241.903 251.97 241.63 251.97 241.313C251.97 241.019 252.054 240.746 252.222 240.494C252.39 240.242 252.654 240.023 253.013 239.836C253.372 239.649 253.832 239.5 254.392 239.388C254.957 239.276 255.633 239.211 256.422 239.192V238.464C256.422 237.82 256.282 237.325 256.002 236.98C255.727 236.63 255.316 236.455 254.77 236.455C254.434 236.455 254.147 236.502 253.909 236.595C253.676 236.688 253.477 236.791 253.314 236.903C253.151 237.015 253.018 237.118 252.915 237.211C252.812 237.304 252.726 237.351 252.656 237.351C252.605 237.351 252.563 237.339 252.53 237.316C252.497 237.293 252.469 237.262 252.446 237.225L252.327 237.022ZM259.941 237.253C260.263 236.852 260.634 236.53 261.054 236.287C261.479 236.044 261.95 235.923 262.468 235.923C262.851 235.923 263.187 235.984 263.476 236.105C263.77 236.226 264.013 236.401 264.204 236.63C264.396 236.859 264.54 237.134 264.638 237.456C264.736 237.778 264.785 238.142 264.785 238.548V243H264.113V238.548C264.113 237.895 263.964 237.384 263.665 237.015C263.367 236.642 262.912 236.455 262.3 236.455C261.848 236.455 261.423 236.572 261.026 236.805C260.634 237.034 260.284 237.353 259.976 237.764V243H259.304V236.035H259.675C259.792 236.035 259.86 236.093 259.878 236.21L259.941 237.253ZM274.701 239.633C274.039 239.656 273.467 239.71 272.986 239.794C272.51 239.873 272.116 239.983 271.803 240.123C271.495 240.263 271.267 240.431 271.117 240.627C270.968 240.818 270.893 241.038 270.893 241.285C270.893 241.518 270.931 241.721 271.005 241.894C271.085 242.062 271.187 242.202 271.313 242.314C271.444 242.421 271.593 242.501 271.761 242.552C271.929 242.603 272.104 242.629 272.286 242.629C272.557 242.629 272.804 242.601 273.028 242.545C273.257 242.484 273.467 242.403 273.658 242.3C273.854 242.193 274.036 242.067 274.204 241.922C274.372 241.777 274.538 241.621 274.701 241.453V239.633ZM270.606 237.022C270.97 236.658 271.353 236.383 271.754 236.196C272.156 236.009 272.611 235.916 273.119 235.916C273.493 235.916 273.819 235.977 274.099 236.098C274.379 236.215 274.61 236.385 274.792 236.609C274.979 236.828 275.119 237.097 275.212 237.414C275.306 237.727 275.352 238.077 275.352 238.464V243H275.086C274.946 243 274.86 242.935 274.827 242.804L274.729 241.908C274.538 242.095 274.347 242.263 274.155 242.412C273.969 242.561 273.773 242.687 273.567 242.79C273.362 242.893 273.14 242.972 272.902 243.028C272.664 243.084 272.403 243.112 272.118 243.112C271.88 243.112 271.649 243.077 271.425 243.007C271.201 242.937 271.001 242.83 270.823 242.685C270.651 242.54 270.511 242.356 270.403 242.132C270.301 241.903 270.249 241.63 270.249 241.313C270.249 241.019 270.333 240.746 270.501 240.494C270.669 240.242 270.933 240.023 271.292 239.836C271.652 239.649 272.111 239.5 272.671 239.388C273.236 239.276 273.913 239.211 274.701 239.192V238.464C274.701 237.82 274.561 237.325 274.281 236.98C274.006 236.63 273.595 236.455 273.049 236.455C272.713 236.455 272.426 236.502 272.188 236.595C271.955 236.688 271.757 236.791 271.593 236.903C271.43 237.015 271.297 237.118 271.194 237.211C271.092 237.304 271.005 237.351 270.935 237.351C270.884 237.351 270.842 237.339 270.809 237.316C270.777 237.293 270.749 237.262 270.725 237.225L270.606 237.022ZM282.267 236.966C282.243 236.989 282.22 237.01 282.197 237.029C282.178 237.043 282.15 237.05 282.113 237.05C282.066 237.05 282.003 237.02 281.924 236.959C281.844 236.894 281.737 236.824 281.602 236.749C281.466 236.674 281.296 236.607 281.091 236.546C280.89 236.481 280.645 236.448 280.356 236.448C279.954 236.448 279.597 236.52 279.285 236.665C278.977 236.805 278.715 237.008 278.501 237.274C278.286 237.54 278.123 237.862 278.011 238.24C277.903 238.618 277.85 239.043 277.85 239.514C277.85 240.004 277.906 240.438 278.018 240.816C278.134 241.194 278.298 241.514 278.508 241.775C278.718 242.032 278.972 242.228 279.271 242.363C279.569 242.498 279.901 242.566 280.265 242.566C280.601 242.566 280.881 242.526 281.105 242.447C281.333 242.368 281.52 242.281 281.665 242.188C281.814 242.095 281.931 242.008 282.015 241.929C282.099 241.85 282.169 241.81 282.225 241.81C282.281 241.81 282.327 241.833 282.365 241.88L282.54 242.104C282.432 242.244 282.297 242.375 282.134 242.496C281.97 242.617 281.786 242.722 281.581 242.811C281.375 242.9 281.151 242.967 280.909 243.014C280.671 243.065 280.421 243.091 280.16 243.091C279.716 243.091 279.31 243.012 278.942 242.853C278.578 242.69 278.263 242.456 277.997 242.153C277.735 241.845 277.53 241.469 277.381 241.026C277.236 240.583 277.164 240.079 277.164 239.514C277.164 238.982 277.234 238.497 277.374 238.058C277.514 237.619 277.719 237.241 277.99 236.924C278.26 236.607 278.589 236.362 278.977 236.189C279.369 236.012 279.817 235.923 280.321 235.923C280.773 235.923 281.175 235.995 281.525 236.14C281.875 236.285 282.18 236.481 282.442 236.728L282.267 236.966ZM288.733 236.966C288.71 236.989 288.687 237.01 288.663 237.029C288.645 237.043 288.617 237.05 288.579 237.05C288.533 237.05 288.47 237.02 288.39 236.959C288.311 236.894 288.204 236.824 288.068 236.749C287.933 236.674 287.763 236.607 287.557 236.546C287.357 236.481 287.112 236.448 286.822 236.448C286.421 236.448 286.064 236.52 285.751 236.665C285.443 236.805 285.182 237.008 284.967 237.274C284.753 237.54 284.589 237.862 284.477 238.24C284.37 238.618 284.316 239.043 284.316 239.514C284.316 240.004 284.372 240.438 284.484 240.816C284.601 241.194 284.764 241.514 284.974 241.775C285.184 242.032 285.439 242.228 285.737 242.363C286.036 242.498 286.367 242.566 286.731 242.566C287.067 242.566 287.347 242.526 287.571 242.447C287.8 242.368 287.987 242.281 288.131 242.188C288.281 242.095 288.397 242.008 288.481 241.929C288.565 241.85 288.635 241.81 288.691 241.81C288.747 241.81 288.794 241.833 288.831 241.88L289.006 242.104C288.899 242.244 288.764 242.375 288.6 242.496C288.437 242.617 288.253 242.722 288.047 242.811C287.842 242.9 287.618 242.967 287.375 243.014C287.137 243.065 286.888 243.091 286.626 243.091C286.183 243.091 285.777 243.012 285.408 242.853C285.044 242.69 284.729 242.456 284.463 242.153C284.202 241.845 283.997 241.469 283.847 241.026C283.703 240.583 283.63 240.079 283.63 239.514C283.63 238.982 283.7 238.497 283.84 238.058C283.98 237.619 284.186 237.241 284.456 236.924C284.727 236.607 285.056 236.362 285.443 236.189C285.835 236.012 286.283 235.923 286.787 235.923C287.24 235.923 287.641 235.995 287.991 236.14C288.341 236.285 288.647 236.481 288.908 236.728L288.733 236.966ZM293.275 235.923C293.774 235.923 294.22 236.009 294.612 236.182C295.009 236.35 295.342 236.59 295.613 236.903C295.884 237.216 296.089 237.594 296.229 238.037C296.374 238.476 296.446 238.968 296.446 239.514C296.446 240.06 296.374 240.552 296.229 240.991C296.089 241.43 295.884 241.805 295.613 242.118C295.342 242.431 295.009 242.671 294.612 242.839C294.22 243.007 293.774 243.091 293.275 243.091C292.776 243.091 292.328 243.007 291.931 242.839C291.539 242.671 291.205 242.431 290.93 242.118C290.659 241.805 290.452 241.43 290.307 240.991C290.167 240.552 290.097 240.06 290.097 239.514C290.097 238.968 290.167 238.476 290.307 238.037C290.452 237.594 290.659 237.216 290.93 236.903C291.205 236.59 291.539 236.35 291.931 236.182C292.328 236.009 292.776 235.923 293.275 235.923ZM293.275 242.566C293.69 242.566 294.052 242.496 294.36 242.356C294.673 242.211 294.932 242.006 295.137 241.74C295.347 241.474 295.503 241.154 295.606 240.781C295.709 240.403 295.76 239.981 295.76 239.514C295.76 239.052 295.709 238.632 295.606 238.254C295.503 237.876 295.347 237.554 295.137 237.288C294.932 237.017 294.673 236.81 294.36 236.665C294.052 236.52 293.69 236.448 293.275 236.448C292.86 236.448 292.496 236.52 292.183 236.665C291.875 236.81 291.616 237.017 291.406 237.288C291.201 237.554 291.044 237.876 290.937 238.254C290.834 238.632 290.783 239.052 290.783 239.514C290.783 239.981 290.834 240.403 290.937 240.781C291.044 241.154 291.201 241.474 291.406 241.74C291.616 242.006 291.875 242.211 292.183 242.356C292.496 242.496 292.86 242.566 293.275 242.566ZM303.728 236.035V243H303.357C303.24 243 303.172 242.939 303.154 242.818L303.091 241.782C302.769 242.183 302.395 242.505 301.971 242.748C301.551 242.991 301.082 243.112 300.564 243.112C300.176 243.112 299.838 243.051 299.549 242.93C299.259 242.809 299.019 242.634 298.828 242.405C298.636 242.176 298.492 241.901 298.394 241.579C298.296 241.257 298.247 240.893 298.247 240.487V236.035H298.919V240.487C298.919 241.14 299.068 241.654 299.367 242.027C299.665 242.396 300.12 242.58 300.732 242.58C301.184 242.58 301.607 242.466 301.999 242.237C302.395 242.004 302.748 241.682 303.056 241.271V236.035H303.728ZM306.658 237.253C306.98 236.852 307.351 236.53 307.771 236.287C308.196 236.044 308.667 235.923 309.185 235.923C309.568 235.923 309.904 235.984 310.193 236.105C310.487 236.226 310.73 236.401 310.921 236.63C311.112 236.859 311.257 237.134 311.355 237.456C311.453 237.778 311.502 238.142 311.502 238.548V243H310.83V238.548C310.83 237.895 310.681 237.384 310.382 237.015C310.083 236.642 309.628 236.455 309.017 236.455C308.564 236.455 308.14 236.572 307.743 236.805C307.351 237.034 307.001 237.353 306.693 237.764V243H306.021V236.035H306.392C306.509 236.035 306.576 236.093 306.595 236.21L306.658 237.253ZM315.527 243.112C315.055 243.112 314.687 242.981 314.421 242.72C314.159 242.459 314.029 242.055 314.029 241.509V236.749H313.028C312.976 236.749 312.934 236.735 312.902 236.707C312.869 236.679 312.853 236.639 312.853 236.588V236.329L314.043 236.245L314.211 233.753C314.22 233.711 314.239 233.674 314.267 233.641C314.295 233.608 314.334 233.592 314.386 233.592H314.701V236.252H316.899V236.749H314.701V241.474C314.701 241.665 314.724 241.831 314.771 241.971C314.822 242.106 314.89 242.218 314.974 242.307C315.062 242.396 315.165 242.461 315.282 242.503C315.398 242.545 315.524 242.566 315.66 242.566C315.828 242.566 315.972 242.543 316.094 242.496C316.215 242.445 316.32 242.391 316.409 242.335C316.497 242.274 316.57 242.221 316.626 242.174C316.682 242.123 316.726 242.097 316.759 242.097C316.796 242.097 316.833 242.12 316.871 242.167L317.053 242.461C316.875 242.657 316.649 242.816 316.374 242.937C316.103 243.054 315.821 243.112 315.527 243.112ZM317.931 233.956C318.057 233.83 318.2 233.709 318.358 233.592C318.517 233.475 318.69 233.373 318.876 233.284C319.068 233.191 319.275 233.118 319.499 233.067C319.723 233.011 319.966 232.983 320.227 232.983C320.549 232.983 320.855 233.032 321.144 233.13C321.438 233.228 321.693 233.368 321.907 233.55C322.127 233.732 322.299 233.956 322.425 234.222C322.556 234.483 322.621 234.777 322.621 235.104C322.621 235.459 322.565 235.764 322.453 236.021C322.346 236.278 322.208 236.504 322.04 236.7C321.872 236.891 321.69 237.062 321.494 237.211C321.298 237.356 321.114 237.493 320.941 237.624C320.769 237.75 320.622 237.878 320.5 238.009C320.384 238.14 320.321 238.284 320.311 238.443L320.234 239.591H319.779L319.737 238.394C319.728 238.198 319.777 238.025 319.884 237.876C319.992 237.727 320.129 237.584 320.297 237.449C320.465 237.314 320.647 237.176 320.843 237.036C321.039 236.896 321.221 236.737 321.389 236.56C321.562 236.383 321.704 236.18 321.816 235.951C321.933 235.722 321.991 235.449 321.991 235.132C321.991 234.88 321.942 234.656 321.844 234.46C321.746 234.259 321.613 234.091 321.445 233.956C321.277 233.816 321.084 233.711 320.864 233.641C320.645 233.566 320.416 233.529 320.178 233.529C319.87 233.529 319.602 233.571 319.373 233.655C319.149 233.734 318.96 233.825 318.806 233.928C318.652 234.026 318.531 234.117 318.442 234.201C318.354 234.28 318.293 234.32 318.26 234.32C318.19 234.32 318.139 234.292 318.106 234.236L317.931 233.956ZM319.345 242.461C319.345 242.372 319.362 242.288 319.394 242.209C319.427 242.13 319.471 242.062 319.527 242.006C319.588 241.945 319.656 241.899 319.73 241.866C319.81 241.829 319.896 241.81 319.989 241.81C320.078 241.81 320.162 241.829 320.241 241.866C320.321 241.899 320.388 241.945 320.444 242.006C320.505 242.062 320.552 242.13 320.584 242.209C320.622 242.288 320.64 242.372 320.64 242.461C320.64 242.554 320.622 242.641 320.584 242.72C320.552 242.795 320.505 242.862 320.444 242.923C320.388 242.979 320.321 243.023 320.241 243.056C320.162 243.089 320.078 243.105 319.989 243.105C319.807 243.105 319.653 243.044 319.527 242.923C319.406 242.797 319.345 242.643 319.345 242.461ZM333.991 242.391V243H328.58V233.095H329.301V242.391H333.991ZM337.422 235.923C337.921 235.923 338.367 236.009 338.759 236.182C339.155 236.35 339.489 236.59 339.76 236.903C340.03 237.216 340.236 237.594 340.376 238.037C340.52 238.476 340.593 238.968 340.593 239.514C340.593 240.06 340.52 240.552 340.376 240.991C340.236 241.43 340.03 241.805 339.76 242.118C339.489 242.431 339.155 242.671 338.759 242.839C338.367 243.007 337.921 243.091 337.422 243.091C336.922 243.091 336.474 243.007 336.078 242.839C335.686 242.671 335.352 242.431 335.077 242.118C334.806 241.805 334.598 241.43 334.454 240.991C334.314 240.552 334.244 240.06 334.244 239.514C334.244 238.968 334.314 238.476 334.454 238.037C334.598 237.594 334.806 237.216 335.077 236.903C335.352 236.59 335.686 236.35 336.078 236.182C336.474 236.009 336.922 235.923 337.422 235.923ZM337.422 242.566C337.837 242.566 338.199 242.496 338.507 242.356C338.819 242.211 339.078 242.006 339.284 241.74C339.494 241.474 339.65 241.154 339.753 240.781C339.855 240.403 339.907 239.981 339.907 239.514C339.907 239.052 339.855 238.632 339.753 238.254C339.65 237.876 339.494 237.554 339.284 237.288C339.078 237.017 338.819 236.81 338.507 236.665C338.199 236.52 337.837 236.448 337.422 236.448C337.006 236.448 336.642 236.52 336.33 236.665C336.022 236.81 335.763 237.017 335.553 237.288C335.347 237.554 335.191 237.876 335.084 238.254C334.981 238.632 334.93 239.052 334.93 239.514C334.93 239.981 334.981 240.403 335.084 240.781C335.191 241.154 335.347 241.474 335.553 241.74C335.763 242.006 336.022 242.211 336.33 242.356C336.642 242.496 337.006 242.566 337.422 242.566ZM344.718 239.92C345.017 239.92 345.283 239.878 345.516 239.794C345.749 239.705 345.945 239.584 346.104 239.43C346.263 239.276 346.384 239.092 346.468 238.877C346.552 238.662 346.594 238.424 346.594 238.163C346.594 237.902 346.55 237.664 346.461 237.449C346.377 237.23 346.253 237.043 346.09 236.889C345.931 236.735 345.735 236.616 345.502 236.532C345.273 236.448 345.012 236.406 344.718 236.406C344.424 236.406 344.16 236.448 343.927 236.532C343.698 236.616 343.502 236.735 343.339 236.889C343.18 237.043 343.059 237.23 342.975 237.449C342.891 237.664 342.849 237.902 342.849 238.163C342.849 238.424 342.891 238.662 342.975 238.877C343.059 239.092 343.18 239.276 343.339 239.43C343.502 239.584 343.698 239.705 343.927 239.794C344.16 239.878 344.424 239.92 344.718 239.92ZM347.322 243.469C347.322 243.25 347.264 243.075 347.147 242.944C347.035 242.809 346.883 242.704 346.692 242.629C346.501 242.554 346.279 242.503 346.027 242.475C345.78 242.442 345.518 242.419 345.243 242.405C344.972 242.391 344.699 242.377 344.424 242.363C344.149 242.349 343.89 242.321 343.647 242.279C343.47 242.349 343.306 242.431 343.157 242.524C343.008 242.613 342.879 242.715 342.772 242.832C342.665 242.949 342.581 243.075 342.52 243.21C342.459 243.35 342.429 243.499 342.429 243.658C342.429 243.863 342.48 244.052 342.583 244.225C342.69 244.402 342.844 244.554 343.045 244.68C343.25 244.811 343.5 244.913 343.794 244.988C344.088 245.063 344.426 245.1 344.809 245.1C345.164 245.1 345.493 245.06 345.796 244.981C346.104 244.902 346.37 244.79 346.594 244.645C346.823 244.5 347 244.328 347.126 244.127C347.257 243.926 347.322 243.707 347.322 243.469ZM348.05 236.343V236.574C348.05 236.677 347.985 236.74 347.854 236.763L346.79 236.84C346.921 237.017 347.021 237.216 347.091 237.435C347.161 237.654 347.196 237.892 347.196 238.149C347.196 238.485 347.135 238.791 347.014 239.066C346.897 239.337 346.729 239.57 346.51 239.766C346.295 239.957 346.034 240.107 345.726 240.214C345.423 240.321 345.087 240.375 344.718 240.375C344.321 240.375 343.96 240.314 343.633 240.193C343.437 240.305 343.281 240.438 343.164 240.592C343.052 240.741 342.996 240.891 342.996 241.04C342.996 241.241 343.066 241.395 343.206 241.502C343.351 241.609 343.537 241.689 343.766 241.74C343.999 241.787 344.263 241.817 344.557 241.831C344.856 241.845 345.159 241.861 345.467 241.88C345.775 241.894 346.076 241.922 346.37 241.964C346.669 242.006 346.932 242.081 347.161 242.188C347.394 242.291 347.581 242.438 347.721 242.629C347.866 242.816 347.938 243.065 347.938 243.378C347.938 243.667 347.866 243.945 347.721 244.211C347.576 244.477 347.366 244.713 347.091 244.918C346.82 245.123 346.491 245.287 346.104 245.408C345.717 245.534 345.283 245.597 344.802 245.597C344.312 245.597 343.883 245.546 343.514 245.443C343.145 245.345 342.835 245.21 342.583 245.037C342.336 244.869 342.149 244.673 342.023 244.449C341.897 244.225 341.834 243.987 341.834 243.735C341.834 243.366 341.955 243.051 342.198 242.79C342.441 242.524 342.772 242.316 343.192 242.167C342.959 242.088 342.77 241.973 342.625 241.824C342.485 241.67 342.415 241.462 342.415 241.201C342.415 241.103 342.434 241 342.471 240.893C342.508 240.786 342.564 240.681 342.639 240.578C342.714 240.471 342.805 240.37 342.912 240.277C343.019 240.184 343.141 240.1 343.276 240.025C342.945 239.834 342.686 239.579 342.499 239.262C342.317 238.945 342.226 238.574 342.226 238.149C342.226 237.813 342.284 237.51 342.401 237.239C342.522 236.964 342.693 236.728 342.912 236.532C343.131 236.336 343.393 236.184 343.696 236.077C344.004 235.97 344.345 235.916 344.718 235.916C345.026 235.916 345.308 235.953 345.565 236.028C345.826 236.103 346.06 236.208 346.265 236.343H348.05ZM354.43 243H353.709V233.095H354.43V243ZM357.572 237.253C357.894 236.852 358.265 236.53 358.685 236.287C359.11 236.044 359.581 235.923 360.099 235.923C360.482 235.923 360.818 235.984 361.107 236.105C361.401 236.226 361.644 236.401 361.835 236.63C362.026 236.859 362.171 237.134 362.269 237.456C362.367 237.778 362.416 238.142 362.416 238.548V243H361.744V238.548C361.744 237.895 361.595 237.384 361.296 237.015C360.997 236.642 360.542 236.455 359.931 236.455C359.478 236.455 359.054 236.572 358.657 236.805C358.265 237.034 357.915 237.353 357.607 237.764V243H356.935V236.035H357.306C357.423 236.035 357.49 236.093 357.509 236.21L357.572 237.253Z" fill="black"/>
</g>
<defs>
<filter id="filter0_d_2805_6084" x="42" y="37" width="462" height="692" filterUnits="userSpaceOnUse" color-interpolation-filters="sRGB">
<feFlood flood-opacity="0" result="BackgroundImageFix"/>
<feColorMatrix in="SourceAlpha" type="matrix" values="0 0 0 0 0 0 0 0 0 0 0 0 0 0 0 0 0 0 127 0" result="hardAlpha"/>
<feOffset dx="3" dy="4"/>
<feGaussianBlur stdDeviation="7.5"/>
<feComposite in2="hardAlpha" operator="out"/>
<feColorMatrix type="matrix" values="0 0 0 0 0 0 0 0 0 0 0 0 0 0 0 0 0 0 0.25 0"/>
<feBlend mode="normal" in2="BackgroundImageFix" result="effect1_dropShadow_2805_6084"/>
<feBlend mode="normal" in="SourceGraphic" in2="effect1_dropShadow_2805_6084" result="shape"/>
</filter>
<filter id="filter1_d_2805_6084" x="150" y="164" width="246" height="295" filterUnits="userSpaceOnUse" color-interpolation-filters="sRGB">
<feFlood flood-opacity="0" result="BackgroundImageFix"/>
<feColorMatrix in="SourceAlpha" type="matrix" values="0 0 0 0 0 0 0 0 0 0 0 0 0 0 0 0 0 0 127 0" result="hardAlpha"/>
<feMorphology radius="1" operator="erode" in="SourceAlpha" result="effect1_dropShadow_2805_6084"/>
<feOffset dx="3" dy="4"/>
<feGaussianBlur stdDeviation="3.5"/>
<feComposite in2="hardAlpha" operator="out"/>
<feColorMatrix type="matrix" values="0 0 0 0 0 0 0 0 0 0 0 0 0 0 0 0 0 0 0.15 0"/>
<feBlend mode="normal" in2="BackgroundImageFix" result="effect1_dropShadow_2805_6084"/>
<feBlend mode="normal" in="SourceGraphic" in2="effect1_dropShadow_2805_6084" result="shape"/>
</filter>
<clipPath id="clip0_2805_6084">
<rect width="540" height="500" fill="white"/>
</clipPath>
<clipPath id="clip1_2805_6084">
<rect width="18" height="18" fill="white" transform="translate(340 358)"/>
</clipPath>
</defs>
</svg>
