<svg width="1110" height="500" viewBox="0 0 1110 500" fill="none" xmlns="http://www.w3.org/2000/svg">
<g clip-path="url(#clip0_2820_5128)">
<rect width="1110" height="500" fill="#25CED1"/>
<g filter="url(#filter0_d_2820_5128)">
<rect x="265" y="104" width="579" height="791" fill="#D9D9D9"/>
</g>
<g filter="url(#filter1_d_2820_5128)">
<rect x="265" y="104" width="579" height="887.264" fill="#FCEADE"/>
</g>
<g filter="url(#filter2_d_2820_5128)">
<rect x="397.688" y="159.153" width="313.625" height="379.299" rx="10" fill="white"/>
</g>
<rect x="453.979" y="467.417" width="202.382" height="46.9097" rx="4" fill="#FF8A5B"/>
<path d="M537.498 487.199C537.45 487.279 537.397 487.341 537.338 487.383C537.285 487.421 537.218 487.439 537.138 487.439C537.047 487.439 536.941 487.394 536.818 487.303C536.695 487.213 536.541 487.114 536.354 487.007C536.173 486.895 535.951 486.794 535.69 486.703C535.434 486.613 535.122 486.567 534.754 486.567C534.407 486.567 534.101 486.615 533.834 486.711C533.573 486.802 533.351 486.927 533.17 487.087C532.994 487.247 532.861 487.437 532.77 487.655C532.679 487.869 532.634 488.101 532.634 488.351C532.634 488.671 532.711 488.938 532.866 489.151C533.026 489.359 533.234 489.538 533.49 489.687C533.751 489.837 534.045 489.967 534.37 490.079C534.701 490.186 535.037 490.298 535.378 490.415C535.725 490.533 536.061 490.666 536.386 490.815C536.717 490.959 537.01 491.143 537.266 491.367C537.527 491.591 537.735 491.866 537.89 492.191C538.05 492.517 538.13 492.917 538.13 493.391C538.13 493.893 538.045 494.365 537.874 494.807C537.703 495.245 537.453 495.626 537.122 495.951C536.797 496.277 536.394 496.533 535.914 496.719C535.439 496.906 534.898 496.999 534.29 496.999C533.543 496.999 532.866 496.866 532.258 496.599C531.65 496.327 531.13 495.962 530.698 495.503L531.146 494.767C531.189 494.709 531.239 494.661 531.298 494.623C531.362 494.581 531.431 494.559 531.506 494.559C531.575 494.559 531.653 494.589 531.738 494.647C531.829 494.701 531.93 494.77 532.042 494.855C532.154 494.941 532.282 495.034 532.426 495.135C532.57 495.237 532.733 495.33 532.914 495.415C533.101 495.501 533.311 495.573 533.546 495.631C533.781 495.685 534.045 495.711 534.338 495.711C534.706 495.711 535.034 495.661 535.322 495.559C535.61 495.458 535.853 495.317 536.05 495.135C536.253 494.949 536.407 494.727 536.514 494.471C536.621 494.215 536.674 493.93 536.674 493.615C536.674 493.269 536.594 492.986 536.434 492.767C536.279 492.543 536.074 492.357 535.818 492.207C535.562 492.058 535.269 491.933 534.938 491.831C534.607 491.725 534.271 491.618 533.93 491.511C533.589 491.399 533.253 491.271 532.922 491.127C532.591 490.983 532.298 490.797 532.042 490.567C531.786 490.338 531.578 490.053 531.418 489.711C531.263 489.365 531.186 488.938 531.186 488.431C531.186 488.026 531.263 487.634 531.418 487.255C531.578 486.877 531.807 486.541 532.106 486.247C532.41 485.954 532.781 485.719 533.218 485.543C533.661 485.367 534.167 485.279 534.738 485.279C535.378 485.279 535.959 485.381 536.482 485.583C537.01 485.786 537.474 486.079 537.874 486.463L537.498 487.199ZM546.493 488.767V496.871H545.645C545.443 496.871 545.315 496.773 545.261 496.575L545.149 495.703C544.797 496.093 544.403 496.407 543.965 496.647C543.528 496.882 543.027 496.999 542.461 496.999C542.019 496.999 541.627 496.927 541.285 496.783C540.949 496.634 540.667 496.426 540.437 496.159C540.208 495.893 540.035 495.57 539.917 495.191C539.805 494.813 539.749 494.394 539.749 493.935V488.767H541.173V493.935C541.173 494.549 541.312 495.023 541.589 495.359C541.872 495.695 542.301 495.863 542.877 495.863C543.299 495.863 543.691 495.765 544.053 495.567C544.421 495.365 544.76 495.087 545.069 494.735V488.767H546.493ZM550.183 494.919C550.445 495.271 550.73 495.519 551.039 495.663C551.354 495.807 551.698 495.879 552.071 495.879C552.834 495.879 553.418 495.61 553.823 495.071C554.229 494.533 554.431 493.73 554.431 492.663C554.431 491.671 554.25 490.943 553.887 490.479C553.53 490.01 553.018 489.775 552.351 489.775C551.887 489.775 551.482 489.882 551.135 490.095C550.794 490.309 550.477 490.61 550.183 490.999V494.919ZM550.183 489.935C550.525 489.541 550.909 489.226 551.335 488.991C551.767 488.757 552.263 488.639 552.823 488.639C553.298 488.639 553.725 488.73 554.103 488.911C554.487 489.093 554.813 489.357 555.079 489.703C555.346 490.045 555.549 490.461 555.687 490.951C555.831 491.442 555.903 491.994 555.903 492.607C555.903 493.263 555.823 493.861 555.663 494.399C555.503 494.938 555.271 495.399 554.967 495.783C554.669 496.162 554.303 496.458 553.871 496.671C553.439 496.879 552.954 496.983 552.415 496.983C551.882 496.983 551.431 496.885 551.063 496.687C550.701 496.485 550.383 496.199 550.111 495.831L550.039 496.567C549.997 496.77 549.874 496.871 549.671 496.871H548.751V485.087H550.183V489.935ZM557.704 496.871V488.767H558.56C558.763 488.767 558.888 488.866 558.936 489.063L559.04 489.895C559.339 489.527 559.675 489.226 560.048 488.991C560.422 488.757 560.854 488.639 561.344 488.639C561.888 488.639 562.328 488.791 562.664 489.095C563.006 489.399 563.251 489.81 563.4 490.327C563.518 490.034 563.667 489.781 563.848 489.567C564.035 489.354 564.243 489.178 564.472 489.039C564.702 488.901 564.944 488.799 565.2 488.735C565.462 488.671 565.726 488.639 565.992 488.639C566.419 488.639 566.798 488.709 567.128 488.847C567.464 488.981 567.747 489.178 567.976 489.439C568.211 489.701 568.39 490.023 568.512 490.407C568.635 490.786 568.696 491.221 568.696 491.711V496.871H567.264V491.711C567.264 491.077 567.126 490.597 566.848 490.271C566.571 489.941 566.171 489.775 565.648 489.775C565.414 489.775 565.19 489.818 564.976 489.903C564.768 489.983 564.584 490.103 564.424 490.263C564.264 490.423 564.136 490.626 564.04 490.871C563.95 491.111 563.904 491.391 563.904 491.711V496.871H562.472V491.711C562.472 491.061 562.342 490.575 562.08 490.255C561.819 489.935 561.438 489.775 560.936 489.775C560.584 489.775 560.259 489.871 559.96 490.063C559.662 490.25 559.387 490.506 559.136 490.831V496.871H557.704ZM572.365 488.767V496.871H570.941V488.767H572.365ZM572.669 486.223C572.669 486.362 572.639 486.493 572.581 486.615C572.527 486.733 572.453 486.839 572.357 486.935C572.266 487.026 572.157 487.098 572.029 487.151C571.906 487.205 571.775 487.231 571.637 487.231C571.498 487.231 571.367 487.205 571.245 487.151C571.127 487.098 571.023 487.026 570.933 486.935C570.842 486.839 570.77 486.733 570.717 486.615C570.663 486.493 570.637 486.362 570.637 486.223C570.637 486.085 570.663 485.954 570.717 485.831C570.77 485.703 570.842 485.594 570.933 485.503C571.023 485.407 571.127 485.333 571.245 485.279C571.367 485.226 571.498 485.199 571.637 485.199C571.775 485.199 571.906 485.226 572.029 485.279C572.157 485.333 572.266 485.407 572.357 485.503C572.453 485.594 572.527 485.703 572.581 485.831C572.639 485.954 572.669 486.085 572.669 486.223ZM577.192 496.999C576.552 496.999 576.059 496.821 575.712 496.463C575.371 496.106 575.2 495.591 575.2 494.919V489.959H574.224C574.139 489.959 574.067 489.935 574.008 489.887C573.95 489.834 573.92 489.754 573.92 489.647V489.079L575.248 488.911L575.576 486.407C575.592 486.327 575.627 486.263 575.68 486.215C575.739 486.162 575.814 486.135 575.904 486.135H576.624V488.927H578.968V489.959H576.624V494.823C576.624 495.165 576.707 495.418 576.872 495.583C577.038 495.749 577.251 495.831 577.512 495.831C577.662 495.831 577.79 495.813 577.896 495.775C578.008 495.733 578.104 495.687 578.184 495.639C578.264 495.591 578.331 495.549 578.384 495.511C578.443 495.469 578.494 495.447 578.536 495.447C578.611 495.447 578.678 495.493 578.736 495.583L579.152 496.263C578.907 496.493 578.611 496.674 578.264 496.807C577.918 496.935 577.56 496.999 577.192 496.999Z" fill="white"/>
<rect x="421.472" y="410.785" width="266.056" height="34.1875" rx="3" fill="white"/>
<g clip-path="url(#clip1_2820_5128)">
<path d="M659.222 427.785C659.222 427.785 662.222 421.785 667.472 421.785C672.722 421.785 675.722 427.785 675.722 427.785C675.722 427.785 672.722 433.785 667.472 433.785C662.222 433.785 659.222 427.785 659.222 427.785Z" stroke="#111111" stroke-width="2" stroke-linecap="round" stroke-linejoin="round"/>
<path d="M667.472 430.035C668.715 430.035 669.722 429.027 669.722 427.785C669.722 426.542 668.715 425.535 667.472 425.535C666.23 425.535 665.222 426.542 665.222 427.785C665.222 429.027 666.23 430.035 667.472 430.035Z" stroke="#111111" stroke-width="2" stroke-linecap="round" stroke-linejoin="round"/>
</g>
<path d="M435.032 431.833C435.294 432.185 435.579 432.433 435.888 432.577C436.198 432.721 436.544 432.793 436.928 432.793C437.686 432.793 438.267 432.523 438.672 431.985C439.078 431.446 439.28 430.678 439.28 429.681C439.28 429.153 439.232 428.699 439.136 428.321C439.046 427.942 438.912 427.633 438.736 427.393C438.56 427.147 438.344 426.969 438.088 426.857C437.832 426.745 437.542 426.689 437.216 426.689C436.752 426.689 436.344 426.795 435.992 427.009C435.646 427.222 435.326 427.523 435.032 427.913V431.833ZM434.96 426.937C435.302 426.515 435.696 426.177 436.144 425.921C436.592 425.665 437.104 425.537 437.68 425.537C438.15 425.537 438.574 425.627 438.952 425.809C439.331 425.985 439.654 426.249 439.92 426.601C440.187 426.947 440.392 427.379 440.536 427.897C440.68 428.414 440.752 429.009 440.752 429.681C440.752 430.278 440.672 430.835 440.512 431.353C440.352 431.865 440.12 432.31 439.816 432.689C439.518 433.062 439.15 433.358 438.712 433.577C438.28 433.79 437.792 433.897 437.248 433.897C436.752 433.897 436.326 433.814 435.968 433.649C435.616 433.478 435.304 433.243 435.032 432.945V436.529H433.6V425.681H434.456C434.659 425.681 434.784 425.779 434.832 425.977L434.96 426.937ZM446.961 430.137C446.305 430.158 445.745 430.211 445.281 430.297C444.822 430.377 444.446 430.483 444.153 430.617C443.865 430.75 443.654 430.907 443.521 431.089C443.393 431.27 443.329 431.473 443.329 431.697C443.329 431.91 443.364 432.094 443.433 432.249C443.502 432.403 443.596 432.531 443.713 432.633C443.836 432.729 443.977 432.801 444.137 432.849C444.302 432.891 444.478 432.913 444.665 432.913C444.916 432.913 445.145 432.889 445.353 432.841C445.561 432.787 445.756 432.713 445.937 432.617C446.124 432.521 446.3 432.406 446.465 432.273C446.636 432.139 446.801 431.987 446.961 431.817V430.137ZM442.361 426.825C442.809 426.393 443.292 426.07 443.809 425.857C444.326 425.643 444.9 425.537 445.529 425.537C445.982 425.537 446.385 425.611 446.737 425.761C447.089 425.91 447.385 426.118 447.625 426.385C447.865 426.651 448.046 426.974 448.169 427.353C448.292 427.731 448.353 428.147 448.353 428.601V433.785H447.721C447.582 433.785 447.476 433.763 447.401 433.721C447.326 433.673 447.268 433.582 447.225 433.449L447.065 432.681C446.852 432.878 446.644 433.054 446.441 433.209C446.238 433.358 446.025 433.486 445.801 433.593C445.577 433.694 445.337 433.771 445.081 433.825C444.83 433.883 444.55 433.913 444.241 433.913C443.926 433.913 443.63 433.87 443.353 433.785C443.076 433.694 442.833 433.561 442.625 433.385C442.422 433.209 442.26 432.987 442.137 432.721C442.02 432.449 441.961 432.129 441.961 431.761C441.961 431.441 442.049 431.134 442.225 430.841C442.401 430.542 442.686 430.278 443.081 430.049C443.476 429.819 443.99 429.633 444.625 429.489C445.26 429.339 446.038 429.254 446.961 429.233V428.601C446.961 427.971 446.825 427.497 446.553 427.177C446.281 426.851 445.884 426.689 445.361 426.689C445.009 426.689 444.713 426.734 444.473 426.825C444.238 426.91 444.033 427.009 443.857 427.121C443.686 427.227 443.537 427.326 443.409 427.417C443.286 427.502 443.164 427.545 443.041 427.545C442.945 427.545 442.862 427.521 442.793 427.473C442.724 427.419 442.665 427.355 442.617 427.281L442.361 426.825ZM455.242 427.017C455.178 427.134 455.079 427.193 454.946 427.193C454.866 427.193 454.775 427.163 454.674 427.105C454.573 427.046 454.447 426.982 454.298 426.913C454.154 426.838 453.981 426.771 453.778 426.713C453.575 426.649 453.335 426.617 453.058 426.617C452.818 426.617 452.602 426.649 452.41 426.713C452.218 426.771 452.053 426.854 451.914 426.961C451.781 427.067 451.677 427.193 451.602 427.337C451.533 427.475 451.498 427.627 451.498 427.793C451.498 428.001 451.557 428.174 451.674 428.313C451.797 428.451 451.957 428.571 452.154 428.673C452.351 428.774 452.575 428.865 452.826 428.945C453.077 429.019 453.333 429.102 453.594 429.193C453.861 429.278 454.119 429.374 454.37 429.481C454.621 429.587 454.845 429.721 455.042 429.881C455.239 430.041 455.397 430.238 455.514 430.473C455.637 430.702 455.698 430.979 455.698 431.305C455.698 431.678 455.631 432.025 455.498 432.345C455.365 432.659 455.167 432.934 454.906 433.169C454.645 433.398 454.325 433.579 453.946 433.713C453.567 433.846 453.13 433.913 452.634 433.913C452.069 433.913 451.557 433.822 451.098 433.641C450.639 433.454 450.25 433.217 449.93 432.929L450.266 432.385C450.309 432.315 450.359 432.262 450.418 432.225C450.477 432.187 450.551 432.169 450.642 432.169C450.738 432.169 450.839 432.206 450.946 432.281C451.053 432.355 451.181 432.438 451.33 432.529C451.485 432.619 451.671 432.702 451.89 432.777C452.109 432.851 452.381 432.889 452.706 432.889C452.983 432.889 453.226 432.854 453.434 432.785C453.642 432.71 453.815 432.611 453.954 432.489C454.093 432.366 454.194 432.225 454.258 432.065C454.327 431.905 454.362 431.734 454.362 431.553C454.362 431.329 454.301 431.145 454.178 431.001C454.061 430.851 453.903 430.726 453.706 430.625C453.509 430.518 453.282 430.427 453.026 430.353C452.775 430.273 452.517 430.19 452.25 430.105C451.989 430.019 451.73 429.923 451.474 429.817C451.223 429.705 450.999 429.566 450.802 429.401C450.605 429.235 450.445 429.033 450.322 428.793C450.205 428.547 450.146 428.251 450.146 427.905C450.146 427.595 450.21 427.299 450.338 427.017C450.466 426.729 450.653 426.478 450.898 426.265C451.143 426.046 451.445 425.873 451.802 425.745C452.159 425.617 452.567 425.553 453.026 425.553C453.559 425.553 454.037 425.638 454.458 425.809C454.885 425.974 455.253 426.203 455.562 426.497L455.242 427.017ZM462.164 427.017C462.1 427.134 462.001 427.193 461.868 427.193C461.788 427.193 461.697 427.163 461.596 427.105C461.495 427.046 461.369 426.982 461.22 426.913C461.076 426.838 460.903 426.771 460.7 426.713C460.497 426.649 460.257 426.617 459.98 426.617C459.74 426.617 459.524 426.649 459.332 426.713C459.14 426.771 458.975 426.854 458.836 426.961C458.703 427.067 458.599 427.193 458.524 427.337C458.455 427.475 458.42 427.627 458.42 427.793C458.42 428.001 458.479 428.174 458.596 428.313C458.719 428.451 458.879 428.571 459.076 428.673C459.273 428.774 459.497 428.865 459.748 428.945C459.999 429.019 460.255 429.102 460.516 429.193C460.783 429.278 461.041 429.374 461.292 429.481C461.543 429.587 461.767 429.721 461.964 429.881C462.161 430.041 462.319 430.238 462.436 430.473C462.559 430.702 462.62 430.979 462.62 431.305C462.62 431.678 462.553 432.025 462.42 432.345C462.287 432.659 462.089 432.934 461.828 433.169C461.567 433.398 461.247 433.579 460.868 433.713C460.489 433.846 460.052 433.913 459.556 433.913C458.991 433.913 458.479 433.822 458.02 433.641C457.561 433.454 457.172 433.217 456.852 432.929L457.188 432.385C457.231 432.315 457.281 432.262 457.34 432.225C457.399 432.187 457.473 432.169 457.564 432.169C457.66 432.169 457.761 432.206 457.868 432.281C457.975 432.355 458.103 432.438 458.252 432.529C458.407 432.619 458.593 432.702 458.812 432.777C459.031 432.851 459.303 432.889 459.628 432.889C459.905 432.889 460.148 432.854 460.356 432.785C460.564 432.71 460.737 432.611 460.876 432.489C461.015 432.366 461.116 432.225 461.18 432.065C461.249 431.905 461.284 431.734 461.284 431.553C461.284 431.329 461.223 431.145 461.1 431.001C460.983 430.851 460.825 430.726 460.628 430.625C460.431 430.518 460.204 430.427 459.948 430.353C459.697 430.273 459.439 430.19 459.172 430.105C458.911 430.019 458.652 429.923 458.396 429.817C458.145 429.705 457.921 429.566 457.724 429.401C457.527 429.235 457.367 429.033 457.244 428.793C457.127 428.547 457.068 428.251 457.068 427.905C457.068 427.595 457.132 427.299 457.26 427.017C457.388 426.729 457.575 426.478 457.82 426.265C458.065 426.046 458.367 425.873 458.724 425.745C459.081 425.617 459.489 425.553 459.948 425.553C460.481 425.553 460.959 425.638 461.38 425.809C461.807 425.974 462.175 426.203 462.484 426.497L462.164 427.017ZM475.542 425.681L472.918 433.785H471.79C471.651 433.785 471.555 433.694 471.502 433.513L469.71 428.017C469.667 427.894 469.632 427.771 469.606 427.649C469.579 427.521 469.552 427.395 469.526 427.273C469.499 427.395 469.472 427.521 469.446 427.649C469.419 427.771 469.384 427.897 469.342 428.025L467.518 433.513C467.47 433.694 467.363 433.785 467.198 433.785H466.126L463.502 425.681H464.622C464.734 425.681 464.827 425.71 464.902 425.769C464.982 425.827 465.035 425.897 465.062 425.977L466.614 431.193C466.704 431.577 466.776 431.939 466.83 432.281C466.878 432.105 466.926 431.926 466.974 431.745C467.027 431.563 467.083 431.379 467.142 431.193L468.854 425.945C468.88 425.865 468.926 425.798 468.99 425.745C469.059 425.691 469.142 425.665 469.238 425.665H469.862C469.968 425.665 470.056 425.691 470.126 425.745C470.195 425.798 470.243 425.865 470.27 425.945L471.942 431.193C472 431.379 472.054 431.563 472.102 431.745C472.15 431.926 472.195 432.105 472.238 432.281C472.264 432.105 472.296 431.929 472.334 431.753C472.376 431.571 472.422 431.385 472.47 431.193L474.054 425.977C474.08 425.891 474.131 425.822 474.206 425.769C474.28 425.71 474.368 425.681 474.47 425.681H475.542ZM480.235 425.553C480.827 425.553 481.36 425.651 481.835 425.849C482.31 426.046 482.715 426.326 483.051 426.689C483.387 427.051 483.643 427.491 483.819 428.009C484 428.521 484.091 429.094 484.091 429.729C484.091 430.369 484 430.945 483.819 431.457C483.643 431.969 483.387 432.406 483.051 432.769C482.715 433.131 482.31 433.411 481.835 433.609C481.36 433.801 480.827 433.897 480.235 433.897C479.638 433.897 479.099 433.801 478.619 433.609C478.144 433.411 477.739 433.131 477.403 432.769C477.067 432.406 476.808 431.969 476.627 431.457C476.451 430.945 476.363 430.369 476.363 429.729C476.363 429.094 476.451 428.521 476.627 428.009C476.808 427.491 477.067 427.051 477.403 426.689C477.739 426.326 478.144 426.046 478.619 425.849C479.099 425.651 479.638 425.553 480.235 425.553ZM480.235 432.785C481.035 432.785 481.632 432.518 482.027 431.985C482.422 431.446 482.619 430.697 482.619 429.737C482.619 428.771 482.422 428.019 482.027 427.481C481.632 426.942 481.035 426.673 480.235 426.673C479.83 426.673 479.475 426.742 479.171 426.881C478.872 427.019 478.622 427.219 478.419 427.481C478.222 427.742 478.072 428.065 477.971 428.449C477.875 428.827 477.827 429.257 477.827 429.737C477.827 430.697 478.024 431.446 478.419 431.985C478.819 432.518 479.424 432.785 480.235 432.785ZM487.249 427.305C487.505 426.75 487.82 426.318 488.193 426.009C488.566 425.694 489.022 425.537 489.561 425.537C489.732 425.537 489.894 425.555 490.049 425.593C490.209 425.63 490.35 425.689 490.473 425.769L490.369 426.833C490.337 426.966 490.257 427.033 490.129 427.033C490.054 427.033 489.945 427.017 489.801 426.985C489.657 426.953 489.494 426.937 489.313 426.937C489.057 426.937 488.828 426.974 488.625 427.049C488.428 427.123 488.249 427.235 488.089 427.385C487.934 427.529 487.793 427.71 487.665 427.929C487.542 428.142 487.43 428.387 487.329 428.665V433.785H485.897V425.681H486.713C486.868 425.681 486.974 425.71 487.033 425.769C487.092 425.827 487.132 425.929 487.153 426.073L487.249 427.305ZM496.693 427.609C496.426 427.251 496.138 427.003 495.829 426.865C495.519 426.721 495.173 426.649 494.789 426.649C494.037 426.649 493.458 426.918 493.053 427.457C492.647 427.995 492.445 428.763 492.445 429.761C492.445 430.289 492.49 430.742 492.581 431.121C492.671 431.494 492.805 431.803 492.981 432.049C493.157 432.289 493.373 432.465 493.629 432.577C493.885 432.689 494.175 432.745 494.501 432.745C494.97 432.745 495.378 432.638 495.725 432.425C496.077 432.211 496.399 431.91 496.693 431.521V427.609ZM498.117 422.001V433.785H497.269C497.066 433.785 496.938 433.686 496.885 433.489L496.757 432.505C496.41 432.921 496.015 433.257 495.573 433.513C495.13 433.769 494.618 433.897 494.037 433.897C493.573 433.897 493.151 433.809 492.773 433.633C492.394 433.451 492.071 433.187 491.805 432.841C491.538 432.494 491.333 432.062 491.189 431.545C491.045 431.027 490.973 430.433 490.973 429.761C490.973 429.163 491.053 428.609 491.213 428.097C491.373 427.579 491.602 427.131 491.901 426.753C492.199 426.374 492.565 426.078 492.997 425.865C493.434 425.646 493.925 425.537 494.469 425.537C494.965 425.537 495.389 425.622 495.741 425.793C496.098 425.958 496.415 426.19 496.693 426.489V422.001H498.117Z" fill="#767676"/>
<rect x="421.472" y="410.785" width="266.056" height="34.1875" rx="3" stroke="#AAAAAA" stroke-width="2"/>
<rect x="421.472" y="353.153" width="266.056" height="34.1875" rx="3" fill="white"/>
<path d="M439.024 371.217C439.024 370.886 438.976 370.585 438.88 370.313C438.79 370.035 438.654 369.798 438.472 369.601C438.296 369.398 438.08 369.243 437.824 369.137C437.568 369.025 437.278 368.969 436.952 368.969C436.27 368.969 435.728 369.169 435.328 369.569C434.934 369.963 434.688 370.513 434.592 371.217H439.024ZM440.176 375.017C440 375.23 439.79 375.417 439.544 375.577C439.299 375.731 439.035 375.859 438.752 375.961C438.475 376.062 438.187 376.137 437.888 376.185C437.59 376.238 437.294 376.265 437 376.265C436.44 376.265 435.923 376.171 435.448 375.985C434.979 375.793 434.571 375.515 434.224 375.153C433.883 374.785 433.616 374.331 433.424 373.793C433.232 373.254 433.136 372.635 433.136 371.937C433.136 371.371 433.222 370.843 433.392 370.353C433.568 369.862 433.819 369.438 434.144 369.081C434.47 368.718 434.867 368.435 435.336 368.233C435.806 368.025 436.334 367.921 436.92 367.921C437.406 367.921 437.854 368.003 438.264 368.169C438.68 368.329 439.038 368.563 439.336 368.873C439.64 369.177 439.878 369.555 440.048 370.009C440.219 370.457 440.304 370.969 440.304 371.545C440.304 371.769 440.28 371.918 440.232 371.993C440.184 372.067 440.094 372.105 439.96 372.105H434.544C434.56 372.617 434.63 373.062 434.752 373.441C434.88 373.819 435.056 374.137 435.28 374.393C435.504 374.643 435.771 374.833 436.08 374.961C436.39 375.083 436.736 375.145 437.12 375.145C437.478 375.145 437.784 375.105 438.04 375.025C438.302 374.939 438.526 374.849 438.712 374.753C438.899 374.657 439.054 374.569 439.176 374.489C439.304 374.403 439.414 374.361 439.504 374.361C439.622 374.361 439.712 374.406 439.776 374.497L440.176 375.017ZM442.053 376.153V368.049H442.909C443.112 368.049 443.237 368.147 443.285 368.345L443.389 369.177C443.688 368.809 444.024 368.507 444.397 368.273C444.771 368.038 445.203 367.921 445.693 367.921C446.237 367.921 446.677 368.073 447.013 368.377C447.355 368.681 447.6 369.091 447.749 369.609C447.867 369.315 448.016 369.062 448.197 368.849C448.384 368.635 448.592 368.459 448.821 368.321C449.051 368.182 449.293 368.081 449.549 368.017C449.811 367.953 450.075 367.921 450.341 367.921C450.768 367.921 451.147 367.99 451.477 368.129C451.813 368.262 452.096 368.459 452.325 368.721C452.56 368.982 452.739 369.305 452.861 369.689C452.984 370.067 453.045 370.502 453.045 370.993V376.153H451.613V370.993C451.613 370.358 451.475 369.878 451.197 369.553C450.92 369.222 450.52 369.057 449.997 369.057C449.763 369.057 449.539 369.099 449.325 369.185C449.117 369.265 448.933 369.385 448.773 369.545C448.613 369.705 448.485 369.907 448.389 370.153C448.299 370.393 448.253 370.673 448.253 370.993V376.153H446.821V370.993C446.821 370.342 446.691 369.857 446.429 369.537C446.168 369.217 445.787 369.057 445.285 369.057C444.933 369.057 444.608 369.153 444.309 369.345C444.011 369.531 443.736 369.787 443.485 370.113V376.153H442.053ZM459.602 372.505C458.946 372.526 458.386 372.579 457.922 372.665C457.463 372.745 457.087 372.851 456.794 372.985C456.506 373.118 456.295 373.275 456.162 373.457C456.034 373.638 455.97 373.841 455.97 374.065C455.97 374.278 456.004 374.462 456.074 374.617C456.143 374.771 456.236 374.899 456.354 375.001C456.476 375.097 456.618 375.169 456.778 375.217C456.943 375.259 457.119 375.281 457.306 375.281C457.556 375.281 457.786 375.257 457.994 375.209C458.202 375.155 458.396 375.081 458.578 374.985C458.764 374.889 458.94 374.774 459.106 374.641C459.276 374.507 459.442 374.355 459.602 374.185V372.505ZM455.002 369.193C455.45 368.761 455.932 368.438 456.45 368.225C456.967 368.011 457.54 367.905 458.17 367.905C458.623 367.905 459.026 367.979 459.378 368.129C459.73 368.278 460.026 368.486 460.266 368.753C460.506 369.019 460.687 369.342 460.81 369.721C460.932 370.099 460.994 370.515 460.994 370.969V376.153H460.362C460.223 376.153 460.116 376.131 460.042 376.089C459.967 376.041 459.908 375.95 459.866 375.817L459.706 375.049C459.492 375.246 459.284 375.422 459.082 375.577C458.879 375.726 458.666 375.854 458.442 375.961C458.218 376.062 457.978 376.139 457.722 376.193C457.471 376.251 457.191 376.281 456.882 376.281C456.567 376.281 456.271 376.238 455.994 376.153C455.716 376.062 455.474 375.929 455.266 375.753C455.063 375.577 454.9 375.355 454.778 375.089C454.66 374.817 454.602 374.497 454.602 374.129C454.602 373.809 454.69 373.502 454.866 373.209C455.042 372.91 455.327 372.646 455.722 372.417C456.116 372.187 456.631 372.001 457.266 371.857C457.9 371.707 458.679 371.622 459.602 371.601V370.969C459.602 370.339 459.466 369.865 459.194 369.545C458.922 369.219 458.524 369.057 458.002 369.057C457.65 369.057 457.354 369.102 457.114 369.193C456.879 369.278 456.674 369.377 456.498 369.489C456.327 369.595 456.178 369.694 456.05 369.785C455.927 369.87 455.804 369.913 455.682 369.913C455.586 369.913 455.503 369.889 455.434 369.841C455.364 369.787 455.306 369.723 455.258 369.649L455.002 369.193ZM464.667 368.049V376.153H463.243V368.049H464.667ZM464.971 365.505C464.971 365.643 464.941 365.774 464.883 365.897C464.829 366.014 464.755 366.121 464.659 366.217C464.568 366.307 464.459 366.379 464.331 366.433C464.208 366.486 464.077 366.513 463.939 366.513C463.8 366.513 463.669 366.486 463.547 366.433C463.429 366.379 463.325 366.307 463.235 366.217C463.144 366.121 463.072 366.014 463.019 365.897C462.965 365.774 462.939 365.643 462.939 365.505C462.939 365.366 462.965 365.235 463.019 365.113C463.072 364.985 463.144 364.875 463.235 364.785C463.325 364.689 463.429 364.614 463.547 364.561C463.669 364.507 463.8 364.481 463.939 364.481C464.077 364.481 464.208 364.507 464.331 364.561C464.459 364.614 464.568 364.689 464.659 364.785C464.755 364.875 464.829 364.985 464.883 365.113C464.941 365.235 464.971 365.366 464.971 365.505ZM468.478 364.369V376.153H467.054V364.369H468.478Z" fill="#767676"/>
<rect x="421.472" y="353.153" width="266.056" height="34.1875" rx="3" stroke="#AAAAAA" stroke-width="2"/>
<rect x="421.472" y="295.521" width="266.056" height="34.1875" rx="3" fill="white"/>
<path d="M443.224 307.057V318.521H442.448C442.326 318.521 442.222 318.5 442.136 318.457C442.056 318.414 441.976 318.342 441.896 318.241L435.264 309.601C435.275 309.734 435.283 309.865 435.288 309.993C435.294 310.121 435.296 310.241 435.296 310.353V318.521H433.936V307.057H434.736C434.806 307.057 434.864 307.062 434.912 307.073C434.96 307.078 435.003 307.092 435.04 307.113C435.078 307.129 435.115 307.156 435.152 307.193C435.19 307.225 435.23 307.268 435.272 307.321L441.904 315.953C441.894 315.814 441.883 315.681 441.872 315.553C441.867 315.42 441.864 315.294 441.864 315.177V307.057H443.224ZM449.977 314.873C449.321 314.894 448.761 314.948 448.297 315.033C447.838 315.113 447.462 315.22 447.169 315.353C446.881 315.486 446.67 315.644 446.537 315.825C446.409 316.006 446.345 316.209 446.345 316.433C446.345 316.646 446.379 316.83 446.449 316.985C446.518 317.14 446.611 317.268 446.729 317.369C446.851 317.465 446.993 317.537 447.153 317.585C447.318 317.628 447.494 317.649 447.681 317.649C447.931 317.649 448.161 317.625 448.369 317.577C448.577 317.524 448.771 317.449 448.953 317.353C449.139 317.257 449.315 317.142 449.481 317.009C449.651 316.876 449.817 316.724 449.977 316.553V314.873ZM445.377 311.561C445.825 311.129 446.307 310.806 446.825 310.593C447.342 310.38 447.915 310.273 448.545 310.273C448.998 310.273 449.401 310.348 449.753 310.497C450.105 310.646 450.401 310.854 450.641 311.121C450.881 311.388 451.062 311.71 451.185 312.089C451.307 312.468 451.369 312.884 451.369 313.337V318.521H450.737C450.598 318.521 450.491 318.5 450.417 318.457C450.342 318.409 450.283 318.318 450.241 318.185L450.081 317.417C449.867 317.614 449.659 317.79 449.457 317.945C449.254 318.094 449.041 318.222 448.817 318.329C448.593 318.43 448.353 318.508 448.097 318.561C447.846 318.62 447.566 318.649 447.257 318.649C446.942 318.649 446.646 318.606 446.369 318.521C446.091 318.43 445.849 318.297 445.641 318.121C445.438 317.945 445.275 317.724 445.153 317.457C445.035 317.185 444.977 316.865 444.977 316.497C444.977 316.177 445.065 315.87 445.241 315.577C445.417 315.278 445.702 315.014 446.097 314.785C446.491 314.556 447.006 314.369 447.641 314.225C448.275 314.076 449.054 313.99 449.977 313.969V313.337C449.977 312.708 449.841 312.233 449.569 311.913C449.297 311.588 448.899 311.425 448.377 311.425C448.025 311.425 447.729 311.47 447.489 311.561C447.254 311.646 447.049 311.745 446.873 311.857C446.702 311.964 446.553 312.062 446.425 312.153C446.302 312.238 446.179 312.281 446.057 312.281C445.961 312.281 445.878 312.257 445.809 312.209C445.739 312.156 445.681 312.092 445.633 312.017L445.377 311.561ZM453.538 318.521V310.417H454.394C454.596 310.417 454.722 310.516 454.77 310.713L454.874 311.545C455.172 311.177 455.508 310.876 455.882 310.641C456.255 310.406 456.687 310.289 457.178 310.289C457.722 310.289 458.162 310.441 458.498 310.745C458.839 311.049 459.084 311.46 459.234 311.977C459.351 311.684 459.5 311.43 459.682 311.217C459.868 311.004 460.076 310.828 460.306 310.689C460.535 310.55 460.778 310.449 461.034 310.385C461.295 310.321 461.559 310.289 461.826 310.289C462.252 310.289 462.631 310.358 462.962 310.497C463.298 310.63 463.58 310.828 463.81 311.089C464.044 311.35 464.223 311.673 464.346 312.057C464.468 312.436 464.53 312.87 464.53 313.361V318.521H463.098V313.361C463.098 312.726 462.959 312.246 462.682 311.921C462.404 311.59 462.004 311.425 461.482 311.425C461.247 311.425 461.023 311.468 460.81 311.553C460.602 311.633 460.418 311.753 460.258 311.913C460.098 312.073 459.97 312.276 459.874 312.521C459.783 312.761 459.738 313.041 459.738 313.361V318.521H458.306V313.361C458.306 312.71 458.175 312.225 457.914 311.905C457.652 311.585 457.271 311.425 456.77 311.425C456.418 311.425 456.092 311.521 455.794 311.713C455.495 311.9 455.22 312.156 454.97 312.481V318.521H453.538ZM472.118 313.585C472.118 313.254 472.07 312.953 471.974 312.681C471.883 312.404 471.747 312.166 471.566 311.969C471.39 311.766 471.174 311.612 470.918 311.505C470.662 311.393 470.371 311.337 470.046 311.337C469.363 311.337 468.822 311.537 468.422 311.937C468.027 312.332 467.782 312.881 467.686 313.585H472.118ZM473.27 317.385C473.094 317.598 472.883 317.785 472.638 317.945C472.393 318.1 472.129 318.228 471.846 318.329C471.569 318.43 471.281 318.505 470.982 318.553C470.683 318.606 470.387 318.633 470.094 318.633C469.534 318.633 469.017 318.54 468.542 318.353C468.073 318.161 467.665 317.884 467.318 317.521C466.977 317.153 466.71 316.7 466.518 316.161C466.326 315.622 466.23 315.004 466.23 314.305C466.23 313.74 466.315 313.212 466.486 312.721C466.662 312.23 466.913 311.806 467.238 311.449C467.563 311.086 467.961 310.804 468.43 310.601C468.899 310.393 469.427 310.289 470.014 310.289C470.499 310.289 470.947 310.372 471.358 310.537C471.774 310.697 472.131 310.932 472.43 311.241C472.734 311.545 472.971 311.924 473.142 312.377C473.313 312.825 473.398 313.337 473.398 313.913C473.398 314.137 473.374 314.286 473.326 314.361C473.278 314.436 473.187 314.473 473.054 314.473H467.638C467.654 314.985 467.723 315.43 467.846 315.809C467.974 316.188 468.15 316.505 468.374 316.761C468.598 317.012 468.865 317.201 469.174 317.329C469.483 317.452 469.83 317.513 470.214 317.513C470.571 317.513 470.878 317.473 471.134 317.393C471.395 317.308 471.619 317.217 471.806 317.121C471.993 317.025 472.147 316.937 472.27 316.857C472.398 316.772 472.507 316.729 472.598 316.729C472.715 316.729 472.806 316.774 472.87 316.865L473.27 317.385Z" fill="#767676"/>
<rect x="421.472" y="295.521" width="266.056" height="34.1875" rx="3" stroke="#AAAAAA" stroke-width="2"/>
<path d="M518.171 212.463C518.097 212.583 518.021 212.673 517.941 212.733C517.861 212.786 517.761 212.813 517.641 212.813C517.514 212.813 517.371 212.759 517.211 212.653C517.057 212.546 516.864 212.429 516.631 212.303C516.404 212.169 516.134 212.049 515.821 211.943C515.507 211.829 515.134 211.773 514.701 211.773C514.301 211.773 513.947 211.823 513.641 211.923C513.341 212.023 513.087 212.163 512.881 212.343C512.674 212.523 512.517 212.736 512.411 212.983C512.311 213.223 512.261 213.486 512.261 213.773C512.261 214.139 512.357 214.446 512.551 214.693C512.744 214.933 512.997 215.139 513.311 215.313C513.631 215.486 513.994 215.639 514.401 215.773C514.807 215.899 515.221 216.036 515.641 216.183C516.067 216.329 516.484 216.496 516.891 216.683C517.297 216.869 517.657 217.106 517.971 217.393C518.291 217.679 518.547 218.029 518.741 218.443C518.934 218.856 519.031 219.359 519.031 219.953C519.031 220.593 518.921 221.193 518.701 221.753C518.481 222.313 518.161 222.803 517.741 223.223C517.327 223.636 516.814 223.963 516.201 224.203C515.594 224.443 514.901 224.563 514.121 224.563C513.661 224.563 513.211 224.516 512.771 224.423C512.337 224.336 511.921 224.213 511.521 224.053C511.127 223.886 510.757 223.686 510.411 223.453C510.064 223.219 509.754 222.959 509.481 222.673L510.161 221.553C510.221 221.459 510.297 221.386 510.391 221.333C510.484 221.279 510.587 221.253 510.701 221.253C510.854 221.253 511.024 221.326 511.211 221.473C511.397 221.613 511.621 221.769 511.881 221.943C512.147 222.109 512.467 222.266 512.841 222.413C513.214 222.553 513.661 222.623 514.181 222.623C515.027 222.623 515.681 222.416 516.141 222.003C516.607 221.589 516.841 221.019 516.841 220.293C516.841 219.886 516.744 219.556 516.551 219.303C516.357 219.043 516.101 218.826 515.781 218.653C515.467 218.479 515.107 218.333 514.701 218.213C514.294 218.093 513.881 217.966 513.461 217.833C513.041 217.693 512.627 217.533 512.221 217.353C511.814 217.166 511.451 216.926 511.131 216.633C510.817 216.333 510.564 215.966 510.371 215.533C510.177 215.093 510.081 214.546 510.081 213.893C510.081 213.373 510.181 212.869 510.381 212.383C510.587 211.896 510.884 211.466 511.271 211.093C511.664 210.713 512.147 210.409 512.721 210.183C513.294 209.956 513.947 209.843 514.681 209.843C515.507 209.843 516.264 209.973 516.951 210.233C517.644 210.493 518.241 210.863 518.741 211.343L518.171 212.463ZM523.32 214.203V224.403H521.17V214.203H523.32ZM523.68 211.123C523.68 211.316 523.64 211.499 523.56 211.673C523.487 211.846 523.384 211.999 523.25 212.133C523.117 212.259 522.96 212.363 522.78 212.443C522.607 212.516 522.42 212.553 522.22 212.553C522.027 212.553 521.844 212.516 521.67 212.443C521.504 212.363 521.357 212.259 521.23 212.133C521.104 211.999 521 211.846 520.92 211.673C520.847 211.499 520.81 211.316 520.81 211.123C520.81 210.923 520.847 210.736 520.92 210.563C521 210.389 521.104 210.239 521.23 210.113C521.357 209.979 521.504 209.876 521.67 209.803C521.844 209.723 522.027 209.683 522.22 209.683C522.42 209.683 522.607 209.723 522.78 209.803C522.96 209.876 523.117 209.979 523.25 210.113C523.384 210.239 523.487 210.389 523.56 210.563C523.64 210.736 523.68 210.923 523.68 211.123ZM529.662 219.213C530.328 219.213 530.828 219.043 531.162 218.703C531.495 218.363 531.662 217.919 531.662 217.373C531.662 216.813 531.495 216.369 531.162 216.043C530.828 215.716 530.328 215.553 529.662 215.553C529.002 215.553 528.502 215.716 528.162 216.043C527.828 216.369 527.662 216.813 527.662 217.373C527.662 217.639 527.705 217.886 527.792 218.113C527.878 218.339 528.005 218.536 528.172 218.703C528.338 218.863 528.545 218.989 528.792 219.083C529.045 219.169 529.335 219.213 529.662 219.213ZM532.652 224.903C532.652 224.676 532.585 224.496 532.452 224.363C532.325 224.223 532.152 224.116 531.932 224.043C531.712 223.963 531.455 223.906 531.162 223.873C530.868 223.833 530.555 223.806 530.222 223.793C529.895 223.773 529.558 223.756 529.212 223.743C528.872 223.723 528.542 223.689 528.222 223.643C527.902 223.809 527.638 224.009 527.432 224.243C527.232 224.476 527.132 224.746 527.132 225.053C527.132 225.253 527.182 225.439 527.282 225.613C527.388 225.786 527.548 225.936 527.762 226.063C527.982 226.189 528.258 226.289 528.592 226.363C528.932 226.436 529.338 226.473 529.812 226.473C530.758 226.473 531.468 226.326 531.942 226.033C532.415 225.739 532.652 225.363 532.652 224.903ZM534.812 214.573V215.373C534.812 215.639 534.652 215.803 534.332 215.863L533.312 216.033C533.485 216.419 533.572 216.849 533.572 217.323C533.572 217.823 533.472 218.276 533.272 218.683C533.078 219.089 532.808 219.436 532.462 219.723C532.115 220.009 531.702 220.229 531.222 220.383C530.742 220.536 530.222 220.613 529.662 220.613C529.448 220.613 529.238 220.603 529.032 220.583C528.832 220.556 528.635 220.523 528.442 220.483C528.248 220.596 528.105 220.716 528.012 220.843C527.918 220.969 527.872 221.099 527.872 221.233C527.872 221.453 527.968 221.616 528.162 221.723C528.355 221.829 528.608 221.906 528.922 221.953C529.242 221.999 529.605 222.029 530.012 222.043C530.418 222.056 530.832 222.079 531.252 222.113C531.672 222.146 532.085 222.203 532.492 222.283C532.898 222.356 533.258 222.483 533.572 222.663C533.892 222.836 534.148 223.073 534.342 223.373C534.535 223.673 534.632 224.063 534.632 224.543C534.632 224.983 534.522 225.413 534.302 225.833C534.082 226.253 533.762 226.626 533.342 226.953C532.928 227.279 532.422 227.539 531.822 227.733C531.222 227.933 530.538 228.033 529.772 228.033C529.012 228.033 528.348 227.959 527.782 227.813C527.222 227.666 526.752 227.466 526.372 227.213C525.998 226.966 525.718 226.679 525.532 226.353C525.352 226.026 525.262 225.686 525.262 225.333C525.262 224.853 525.412 224.443 525.712 224.103C526.018 223.763 526.432 223.496 526.952 223.303C526.672 223.169 526.445 222.986 526.272 222.753C526.105 222.519 526.022 222.213 526.022 221.833C526.022 221.533 526.132 221.219 526.352 220.893C526.572 220.566 526.902 220.289 527.342 220.063C526.835 219.783 526.435 219.413 526.142 218.953C525.848 218.486 525.702 217.943 525.702 217.323C525.702 216.816 525.798 216.359 525.992 215.953C526.192 215.546 526.468 215.199 526.822 214.913C527.175 214.626 527.592 214.406 528.072 214.253C528.558 214.099 529.088 214.023 529.662 214.023C530.542 214.023 531.308 214.206 531.962 214.573H534.812ZM538.52 215.553C538.74 215.326 538.967 215.123 539.2 214.943C539.44 214.756 539.693 214.596 539.96 214.463C540.227 214.329 540.51 214.226 540.81 214.153C541.11 214.079 541.437 214.043 541.79 214.043C542.35 214.043 542.84 214.136 543.26 214.323C543.687 214.509 544.043 214.773 544.33 215.113C544.623 215.453 544.843 215.863 544.99 216.343C545.137 216.816 545.21 217.339 545.21 217.913V224.403H543.07V217.913C543.07 217.226 542.91 216.693 542.59 216.313C542.277 215.933 541.797 215.743 541.15 215.743C540.67 215.743 540.223 215.853 539.81 216.073C539.403 216.293 539.02 216.593 538.66 216.973V224.403H536.51V214.203H537.81C538.103 214.203 538.29 214.339 538.37 214.613L538.52 215.553ZM558.781 222.513C559.335 222.513 559.828 222.419 560.261 222.233C560.701 222.046 561.071 221.786 561.371 221.453C561.678 221.119 561.911 220.719 562.071 220.253C562.231 219.779 562.311 219.256 562.311 218.683V210.003H564.641V218.683C564.641 219.529 564.505 220.313 564.231 221.033C563.965 221.753 563.578 222.376 563.071 222.903C562.565 223.423 561.948 223.833 561.221 224.133C560.501 224.426 559.688 224.573 558.781 224.573C557.875 224.573 557.058 224.426 556.331 224.133C555.611 223.833 554.998 223.423 554.491 222.903C553.985 222.376 553.595 221.753 553.321 221.033C553.055 220.313 552.921 219.529 552.921 218.683V210.003H555.261V218.673C555.261 219.246 555.341 219.769 555.501 220.243C555.661 220.709 555.891 221.113 556.191 221.453C556.491 221.786 556.858 222.046 557.291 222.233C557.731 222.419 558.228 222.513 558.781 222.513ZM569.324 221.843C569.624 222.229 569.951 222.503 570.304 222.663C570.664 222.816 571.061 222.893 571.494 222.893C572.334 222.893 572.987 222.586 573.454 221.973C573.927 221.359 574.164 220.446 574.164 219.233C574.164 218.606 574.111 218.073 574.004 217.633C573.897 217.186 573.744 216.823 573.544 216.543C573.344 216.263 573.101 216.059 572.814 215.933C572.527 215.806 572.204 215.743 571.844 215.743C571.297 215.743 570.824 215.863 570.424 216.103C570.031 216.336 569.664 216.673 569.324 217.113V221.843ZM569.214 215.683C569.641 215.183 570.124 214.779 570.664 214.473C571.211 214.166 571.844 214.013 572.564 214.013C573.137 214.013 573.657 214.129 574.124 214.363C574.591 214.589 574.991 214.923 575.324 215.363C575.657 215.803 575.914 216.349 576.094 217.003C576.281 217.649 576.374 218.393 576.374 219.233C576.374 219.986 576.271 220.689 576.064 221.343C575.864 221.989 575.574 222.553 575.194 223.033C574.814 223.506 574.354 223.879 573.814 224.153C573.274 224.419 572.664 224.553 571.984 224.553C571.384 224.553 570.874 224.456 570.454 224.263C570.041 224.069 569.664 223.803 569.324 223.463V227.793H567.174V214.203H568.474C568.767 214.203 568.954 214.339 569.034 214.613L569.214 215.683Z" fill="black"/>
<path d="M427.276 253.992L425.26 248.987C425.19 248.824 425.123 248.628 425.057 248.399C425.029 248.511 424.999 248.619 424.966 248.721C424.934 248.819 424.899 248.91 424.861 248.994L422.845 253.992H427.276ZM429.467 257.59H428.914C428.849 257.59 428.795 257.574 428.753 257.541C428.711 257.504 428.679 257.457 428.655 257.401L427.493 254.524H422.628L421.466 257.401C421.448 257.453 421.415 257.497 421.368 257.534C421.322 257.572 421.266 257.59 421.2 257.59H420.654L424.707 247.685H425.414L429.467 257.59ZM431.474 247.405V257.59H430.802V247.405H431.474ZM434.466 252.305C434.573 252.021 434.695 251.769 434.83 251.549C434.97 251.325 435.129 251.136 435.306 250.982C435.488 250.828 435.689 250.712 435.908 250.632C436.132 250.548 436.379 250.506 436.65 250.506C436.795 250.506 436.937 250.52 437.077 250.548C437.217 250.572 437.341 250.616 437.448 250.681L437.392 251.143C437.369 251.218 437.324 251.255 437.259 251.255C437.203 251.255 437.117 251.239 437 251.206C436.888 251.174 436.739 251.157 436.552 251.157C436.281 251.157 436.041 251.199 435.831 251.283C435.626 251.363 435.439 251.484 435.271 251.647C435.108 251.811 434.963 252.014 434.837 252.256C434.716 252.494 434.604 252.77 434.501 253.082V257.59H433.829V250.625H434.186C434.265 250.625 434.321 250.642 434.354 250.674C434.387 250.707 434.408 250.763 434.417 250.842L434.466 252.305ZM443.268 253.404C443.268 253.031 443.214 252.697 443.107 252.403C443.004 252.105 442.857 251.853 442.666 251.647C442.475 251.442 442.246 251.286 441.98 251.178C441.719 251.066 441.429 251.01 441.112 251.01C440.753 251.01 440.431 251.066 440.146 251.178C439.861 251.29 439.614 251.451 439.404 251.661C439.199 251.871 439.033 252.123 438.907 252.417C438.781 252.711 438.697 253.04 438.655 253.404H443.268ZM438.62 253.831V253.964C438.62 254.487 438.681 254.947 438.802 255.343C438.923 255.74 439.096 256.074 439.32 256.344C439.544 256.61 439.815 256.811 440.132 256.946C440.449 257.082 440.804 257.149 441.196 257.149C441.546 257.149 441.849 257.112 442.106 257.037C442.363 256.958 442.577 256.872 442.75 256.778C442.927 256.68 443.067 256.594 443.17 256.519C443.273 256.44 443.347 256.4 443.394 256.4C443.455 256.4 443.501 256.424 443.534 256.47L443.716 256.694C443.604 256.834 443.455 256.965 443.268 257.086C443.086 257.208 442.881 257.313 442.652 257.401C442.428 257.485 442.185 257.553 441.924 257.604C441.667 257.656 441.408 257.681 441.147 257.681C440.671 257.681 440.237 257.6 439.845 257.436C439.453 257.268 439.117 257.026 438.837 256.708C438.557 256.391 438.34 256.004 438.186 255.546C438.037 255.084 437.962 254.557 437.962 253.964C437.962 253.465 438.032 253.005 438.172 252.585C438.317 252.161 438.522 251.797 438.788 251.493C439.059 251.185 439.388 250.945 439.775 250.772C440.167 250.6 440.61 250.513 441.105 250.513C441.497 250.513 441.861 250.581 442.197 250.716C442.533 250.852 442.825 251.05 443.072 251.311C443.319 251.568 443.513 251.885 443.653 252.263C443.798 252.641 443.87 253.075 443.87 253.565C443.87 253.668 443.856 253.738 443.828 253.775C443.8 253.813 443.753 253.831 443.688 253.831H438.62ZM449.582 254.223C448.919 254.247 448.347 254.3 447.867 254.384C447.391 254.464 446.996 254.573 446.684 254.713C446.376 254.853 446.147 255.021 445.998 255.217C445.848 255.409 445.774 255.628 445.774 255.875C445.774 256.109 445.811 256.312 445.886 256.484C445.965 256.652 446.068 256.792 446.194 256.904C446.324 257.012 446.474 257.091 446.642 257.142C446.81 257.194 446.985 257.219 447.167 257.219C447.437 257.219 447.685 257.191 447.909 257.135C448.137 257.075 448.347 256.993 448.539 256.89C448.735 256.783 448.917 256.657 449.085 256.512C449.253 256.368 449.418 256.211 449.582 256.043V254.223ZM445.487 251.612C445.851 251.248 446.233 250.973 446.635 250.786C447.036 250.6 447.491 250.506 448 250.506C448.373 250.506 448.7 250.567 448.98 250.688C449.26 250.805 449.491 250.975 449.673 251.199C449.859 251.419 449.999 251.687 450.093 252.004C450.186 252.317 450.233 252.667 450.233 253.054V257.59H449.967C449.827 257.59 449.74 257.525 449.708 257.394L449.61 256.498C449.418 256.685 449.227 256.853 449.036 257.002C448.849 257.152 448.653 257.278 448.448 257.38C448.242 257.483 448.021 257.562 447.783 257.618C447.545 257.674 447.283 257.702 446.999 257.702C446.761 257.702 446.53 257.667 446.306 257.597C446.082 257.527 445.881 257.42 445.704 257.275C445.531 257.131 445.391 256.946 445.284 256.722C445.181 256.494 445.13 256.221 445.13 255.903C445.13 255.609 445.214 255.336 445.382 255.084C445.55 254.832 445.813 254.613 446.173 254.426C446.532 254.24 446.992 254.09 447.552 253.978C448.116 253.866 448.793 253.801 449.582 253.782V253.054C449.582 252.41 449.442 251.916 449.162 251.57C448.886 251.22 448.476 251.045 447.93 251.045C447.594 251.045 447.307 251.092 447.069 251.185C446.835 251.279 446.637 251.381 446.474 251.493C446.31 251.605 446.177 251.708 446.075 251.801C445.972 251.895 445.886 251.941 445.816 251.941C445.764 251.941 445.722 251.93 445.69 251.906C445.657 251.883 445.629 251.853 445.606 251.815L445.487 251.612ZM457.217 252.123C456.951 251.722 456.655 251.44 456.328 251.276C456.006 251.113 455.637 251.031 455.222 251.031C454.811 251.031 454.452 251.106 454.144 251.255C453.836 251.405 453.577 251.617 453.367 251.892C453.162 252.163 453.005 252.49 452.898 252.872C452.795 253.25 452.744 253.668 452.744 254.125C452.744 255.161 452.933 255.924 453.311 256.414C453.694 256.9 454.244 257.142 454.963 257.142C455.42 257.142 455.838 257.023 456.216 256.785C456.594 256.547 456.928 256.214 457.217 255.784V252.123ZM457.882 247.405V257.59H457.518C457.397 257.59 457.327 257.53 457.308 257.408L457.238 256.309C456.93 256.729 456.571 257.063 456.16 257.31C455.749 257.558 455.287 257.681 454.774 257.681C453.915 257.681 453.248 257.385 452.772 256.792C452.296 256.2 452.058 255.311 452.058 254.125C452.058 253.617 452.123 253.143 452.254 252.704C452.389 252.261 452.585 251.878 452.842 251.556C453.099 251.23 453.414 250.973 453.787 250.786C454.165 250.6 454.599 250.506 455.089 250.506C455.56 250.506 455.969 250.593 456.314 250.765C456.659 250.938 456.96 251.195 457.217 251.535V247.405H457.882ZM465.803 250.625L461.799 259.83C461.771 259.896 461.734 259.949 461.687 259.991C461.645 260.033 461.582 260.054 461.498 260.054H461.022L462.247 257.331L459.3 250.625H459.853C459.923 250.625 459.979 250.644 460.021 250.681C460.063 250.714 460.091 250.751 460.105 250.793L462.45 256.211C462.478 256.281 462.501 256.354 462.52 256.428C462.543 256.498 462.564 256.571 462.583 256.645C462.606 256.571 462.63 256.498 462.653 256.428C462.681 256.354 462.709 256.281 462.737 256.211L465.054 250.793C465.077 250.742 465.11 250.702 465.152 250.674C465.194 250.642 465.241 250.625 465.292 250.625H465.803ZM471.333 251.801C471.655 251.409 472.022 251.097 472.432 250.863C472.848 250.63 473.312 250.513 473.825 250.513C474.208 250.513 474.544 250.574 474.833 250.695C475.127 250.817 475.37 250.992 475.561 251.22C475.753 251.449 475.897 251.724 475.995 252.046C476.093 252.368 476.142 252.732 476.142 253.138V257.59H475.47V253.138C475.47 252.485 475.321 251.974 475.022 251.605C474.724 251.232 474.269 251.045 473.657 251.045C473.205 251.045 472.78 251.162 472.383 251.395C471.991 251.624 471.641 251.944 471.333 252.354V257.59H470.661V247.405H471.333V251.801ZM482.257 254.223C481.595 254.247 481.023 254.3 480.542 254.384C480.066 254.464 479.672 254.573 479.359 254.713C479.051 254.853 478.823 255.021 478.673 255.217C478.524 255.409 478.449 255.628 478.449 255.875C478.449 256.109 478.487 256.312 478.561 256.484C478.641 256.652 478.743 256.792 478.869 256.904C479 257.012 479.149 257.091 479.317 257.142C479.485 257.194 479.66 257.219 479.842 257.219C480.113 257.219 480.36 257.191 480.584 257.135C480.813 257.075 481.023 256.993 481.214 256.89C481.41 256.783 481.592 256.657 481.76 256.512C481.928 256.368 482.094 256.211 482.257 256.043V254.223ZM478.162 251.612C478.526 251.248 478.909 250.973 479.31 250.786C479.712 250.6 480.167 250.506 480.675 250.506C481.049 250.506 481.375 250.567 481.655 250.688C481.935 250.805 482.166 250.975 482.348 251.199C482.535 251.419 482.675 251.687 482.768 252.004C482.862 252.317 482.908 252.667 482.908 253.054V257.59H482.642C482.502 257.59 482.416 257.525 482.383 257.394L482.285 256.498C482.094 256.685 481.903 256.853 481.711 257.002C481.525 257.152 481.329 257.278 481.123 257.38C480.918 257.483 480.696 257.562 480.458 257.618C480.22 257.674 479.959 257.702 479.674 257.702C479.436 257.702 479.205 257.667 478.981 257.597C478.757 257.527 478.557 257.42 478.379 257.275C478.207 257.131 478.067 256.946 477.959 256.722C477.857 256.494 477.805 256.221 477.805 255.903C477.805 255.609 477.889 255.336 478.057 255.084C478.225 254.832 478.489 254.613 478.848 254.426C479.208 254.24 479.667 254.09 480.227 253.978C480.792 253.866 481.469 253.801 482.257 253.782V253.054C482.257 252.41 482.117 251.916 481.837 251.57C481.562 251.22 481.151 251.045 480.605 251.045C480.269 251.045 479.982 251.092 479.744 251.185C479.511 251.279 479.313 251.381 479.149 251.493C478.986 251.605 478.853 251.708 478.75 251.801C478.648 251.895 478.561 251.941 478.491 251.941C478.44 251.941 478.398 251.93 478.365 251.906C478.333 251.883 478.305 251.853 478.281 251.815L478.162 251.612ZM490.623 250.625L487.683 257.59H487.095L484.155 250.625H484.68C484.746 250.625 484.799 250.644 484.841 250.681C484.883 250.714 484.911 250.751 484.925 250.793L487.228 256.288C487.298 256.494 487.354 256.697 487.396 256.897C487.438 256.697 487.497 256.494 487.571 256.288L489.881 250.793C489.905 250.742 489.935 250.702 489.972 250.674C490.014 250.642 490.063 250.625 490.119 250.625H490.623ZM496.78 253.404C496.78 253.031 496.726 252.697 496.619 252.403C496.516 252.105 496.369 251.853 496.178 251.647C495.986 251.442 495.758 251.286 495.492 251.178C495.23 251.066 494.941 251.01 494.624 251.01C494.264 251.01 493.942 251.066 493.658 251.178C493.373 251.29 493.126 251.451 492.916 251.661C492.71 251.871 492.545 252.123 492.419 252.417C492.293 252.711 492.209 253.04 492.167 253.404H496.78ZM492.132 253.831V253.964C492.132 254.487 492.192 254.947 492.314 255.343C492.435 255.74 492.608 256.074 492.832 256.344C493.056 256.61 493.326 256.811 493.644 256.946C493.961 257.082 494.316 257.149 494.708 257.149C495.058 257.149 495.361 257.112 495.618 257.037C495.874 256.958 496.089 256.872 496.262 256.778C496.439 256.68 496.579 256.594 496.682 256.519C496.784 256.44 496.859 256.4 496.906 256.4C496.966 256.4 497.013 256.424 497.046 256.47L497.228 256.694C497.116 256.834 496.966 256.965 496.78 257.086C496.598 257.208 496.392 257.313 496.164 257.401C495.94 257.485 495.697 257.553 495.436 257.604C495.179 257.656 494.92 257.681 494.659 257.681C494.183 257.681 493.749 257.6 493.357 257.436C492.965 257.268 492.629 257.026 492.349 256.708C492.069 256.391 491.852 256.004 491.698 255.546C491.548 255.084 491.474 254.557 491.474 253.964C491.474 253.465 491.544 253.005 491.684 252.585C491.828 252.161 492.034 251.797 492.3 251.493C492.57 251.185 492.899 250.945 493.287 250.772C493.679 250.6 494.122 250.513 494.617 250.513C495.009 250.513 495.373 250.581 495.709 250.716C496.045 250.852 496.336 251.05 496.584 251.311C496.831 251.568 497.025 251.885 497.165 252.263C497.309 252.641 497.382 253.075 497.382 253.565C497.382 253.668 497.368 253.738 497.34 253.775C497.312 253.813 497.265 253.831 497.2 253.831H492.132ZM506.894 254.223C506.232 254.247 505.66 254.3 505.179 254.384C504.703 254.464 504.309 254.573 503.996 254.713C503.688 254.853 503.46 255.021 503.31 255.217C503.161 255.409 503.086 255.628 503.086 255.875C503.086 256.109 503.124 256.312 503.198 256.484C503.278 256.652 503.38 256.792 503.506 256.904C503.637 257.012 503.786 257.091 503.954 257.142C504.122 257.194 504.297 257.219 504.479 257.219C504.75 257.219 504.997 257.191 505.221 257.135C505.45 257.075 505.66 256.993 505.851 256.89C506.047 256.783 506.229 256.657 506.397 256.512C506.565 256.368 506.731 256.211 506.894 256.043V254.223ZM502.799 251.612C503.163 251.248 503.546 250.973 503.947 250.786C504.349 250.6 504.804 250.506 505.312 250.506C505.686 250.506 506.012 250.567 506.292 250.688C506.572 250.805 506.803 250.975 506.985 251.199C507.172 251.419 507.312 251.687 507.405 252.004C507.499 252.317 507.545 252.667 507.545 253.054V257.59H507.279C507.139 257.59 507.053 257.525 507.02 257.394L506.922 256.498C506.731 256.685 506.54 256.853 506.348 257.002C506.162 257.152 505.966 257.278 505.76 257.38C505.555 257.483 505.333 257.562 505.095 257.618C504.857 257.674 504.596 257.702 504.311 257.702C504.073 257.702 503.842 257.667 503.618 257.597C503.394 257.527 503.194 257.42 503.016 257.275C502.844 257.131 502.704 256.946 502.596 256.722C502.494 256.494 502.442 256.221 502.442 255.903C502.442 255.609 502.526 255.336 502.694 255.084C502.862 254.832 503.126 254.613 503.485 254.426C503.845 254.24 504.304 254.09 504.864 253.978C505.429 253.866 506.106 253.801 506.894 253.782V253.054C506.894 252.41 506.754 251.916 506.474 251.57C506.199 251.22 505.788 251.045 505.242 251.045C504.906 251.045 504.619 251.092 504.381 251.185C504.148 251.279 503.95 251.381 503.786 251.493C503.623 251.605 503.49 251.708 503.387 251.801C503.285 251.895 503.198 251.941 503.128 251.941C503.077 251.941 503.035 251.93 503.002 251.906C502.97 251.883 502.942 251.853 502.918 251.815L502.799 251.612ZM510.413 251.843C510.735 251.442 511.106 251.12 511.526 250.877C511.951 250.635 512.422 250.513 512.94 250.513C513.323 250.513 513.659 250.574 513.948 250.695C514.242 250.817 514.485 250.992 514.676 251.22C514.868 251.449 515.012 251.724 515.11 252.046C515.208 252.368 515.257 252.732 515.257 253.138V257.59H514.585V253.138C514.585 252.485 514.436 251.974 514.137 251.605C513.839 251.232 513.384 251.045 512.772 251.045C512.32 251.045 511.895 251.162 511.498 251.395C511.106 251.624 510.756 251.944 510.448 252.354V257.59H509.776V250.625H510.147C510.264 250.625 510.332 250.684 510.35 250.8L510.413 251.843ZM525.173 254.223C524.511 254.247 523.939 254.3 523.458 254.384C522.982 254.464 522.588 254.573 522.275 254.713C521.967 254.853 521.739 255.021 521.589 255.217C521.44 255.409 521.365 255.628 521.365 255.875C521.365 256.109 521.403 256.312 521.477 256.484C521.557 256.652 521.659 256.792 521.785 256.904C521.916 257.012 522.065 257.091 522.233 257.142C522.401 257.194 522.576 257.219 522.758 257.219C523.029 257.219 523.276 257.191 523.5 257.135C523.729 257.075 523.939 256.993 524.13 256.89C524.326 256.783 524.508 256.657 524.676 256.512C524.844 256.368 525.01 256.211 525.173 256.043V254.223ZM521.078 251.612C521.442 251.248 521.825 250.973 522.226 250.786C522.628 250.6 523.083 250.506 523.591 250.506C523.965 250.506 524.291 250.567 524.571 250.688C524.851 250.805 525.082 250.975 525.264 251.199C525.451 251.419 525.591 251.687 525.684 252.004C525.778 252.317 525.824 252.667 525.824 253.054V257.59H525.558C525.418 257.59 525.332 257.525 525.299 257.394L525.201 256.498C525.01 256.685 524.819 256.853 524.627 257.002C524.441 257.152 524.245 257.278 524.039 257.38C523.834 257.483 523.612 257.562 523.374 257.618C523.136 257.674 522.875 257.702 522.59 257.702C522.352 257.702 522.121 257.667 521.897 257.597C521.673 257.527 521.473 257.42 521.295 257.275C521.123 257.131 520.983 256.946 520.875 256.722C520.773 256.494 520.721 256.221 520.721 255.903C520.721 255.609 520.805 255.336 520.973 255.084C521.141 254.832 521.405 254.613 521.764 254.426C522.124 254.24 522.583 254.09 523.143 253.978C523.708 253.866 524.385 253.801 525.173 253.782V253.054C525.173 252.41 525.033 251.916 524.753 251.57C524.478 251.22 524.067 251.045 523.521 251.045C523.185 251.045 522.898 251.092 522.66 251.185C522.427 251.279 522.229 251.381 522.065 251.493C521.902 251.605 521.769 251.708 521.666 251.801C521.564 251.895 521.477 251.941 521.407 251.941C521.356 251.941 521.314 251.93 521.281 251.906C521.249 251.883 521.221 251.853 521.197 251.815L521.078 251.612ZM532.739 251.556C532.715 251.58 532.692 251.601 532.669 251.619C532.65 251.633 532.622 251.64 532.585 251.64C532.538 251.64 532.475 251.61 532.396 251.549C532.316 251.484 532.209 251.414 532.074 251.339C531.938 251.265 531.768 251.197 531.563 251.136C531.362 251.071 531.117 251.038 530.828 251.038C530.426 251.038 530.069 251.111 529.757 251.255C529.449 251.395 529.187 251.598 528.973 251.864C528.758 252.13 528.595 252.452 528.483 252.83C528.375 253.208 528.322 253.633 528.322 254.104C528.322 254.594 528.378 255.028 528.49 255.406C528.606 255.784 528.77 256.104 528.98 256.365C529.19 256.622 529.444 256.818 529.743 256.953C530.041 257.089 530.373 257.156 530.737 257.156C531.073 257.156 531.353 257.117 531.577 257.037C531.805 256.958 531.992 256.872 532.137 256.778C532.286 256.685 532.403 256.599 532.487 256.519C532.571 256.44 532.641 256.4 532.697 256.4C532.753 256.4 532.799 256.424 532.837 256.47L533.012 256.694C532.904 256.834 532.769 256.965 532.606 257.086C532.442 257.208 532.258 257.313 532.053 257.401C531.847 257.49 531.623 257.558 531.381 257.604C531.143 257.656 530.893 257.681 530.632 257.681C530.188 257.681 529.782 257.602 529.414 257.443C529.05 257.28 528.735 257.047 528.469 256.743C528.207 256.435 528.002 256.06 527.853 255.616C527.708 255.173 527.636 254.669 527.636 254.104C527.636 253.572 527.706 253.087 527.846 252.648C527.986 252.21 528.191 251.832 528.462 251.514C528.732 251.197 529.061 250.952 529.449 250.779C529.841 250.602 530.289 250.513 530.793 250.513C531.245 250.513 531.647 250.586 531.997 250.73C532.347 250.875 532.652 251.071 532.914 251.318L532.739 251.556ZM539.206 251.556C539.182 251.58 539.159 251.601 539.136 251.619C539.117 251.633 539.089 251.64 539.052 251.64C539.005 251.64 538.942 251.61 538.863 251.549C538.783 251.484 538.676 251.414 538.541 251.339C538.405 251.265 538.235 251.197 538.03 251.136C537.829 251.071 537.584 251.038 537.295 251.038C536.893 251.038 536.536 251.111 536.224 251.255C535.916 251.395 535.654 251.598 535.44 251.864C535.225 252.13 535.062 252.452 534.95 252.83C534.842 253.208 534.789 253.633 534.789 254.104C534.789 254.594 534.845 255.028 534.957 255.406C535.073 255.784 535.237 256.104 535.447 256.365C535.657 256.622 535.911 256.818 536.21 256.953C536.508 257.089 536.84 257.156 537.204 257.156C537.54 257.156 537.82 257.117 538.044 257.037C538.272 256.958 538.459 256.872 538.604 256.778C538.753 256.685 538.87 256.599 538.954 256.519C539.038 256.44 539.108 256.4 539.164 256.4C539.22 256.4 539.266 256.424 539.304 256.47L539.479 256.694C539.371 256.834 539.236 256.965 539.073 257.086C538.909 257.208 538.725 257.313 538.52 257.401C538.314 257.49 538.09 257.558 537.848 257.604C537.61 257.656 537.36 257.681 537.099 257.681C536.655 257.681 536.249 257.602 535.881 257.443C535.517 257.28 535.202 257.047 534.936 256.743C534.674 256.435 534.469 256.06 534.32 255.616C534.175 255.173 534.103 254.669 534.103 254.104C534.103 253.572 534.173 253.087 534.313 252.648C534.453 252.21 534.658 251.832 534.929 251.514C535.199 251.197 535.528 250.952 535.916 250.779C536.308 250.602 536.756 250.513 537.26 250.513C537.712 250.513 538.114 250.586 538.464 250.73C538.814 250.875 539.119 251.071 539.381 251.318L539.206 251.556ZM543.747 250.513C544.247 250.513 544.692 250.6 545.084 250.772C545.481 250.94 545.815 251.181 546.085 251.493C546.356 251.806 546.561 252.184 546.701 252.627C546.846 253.066 546.918 253.558 546.918 254.104C546.918 254.65 546.846 255.143 546.701 255.581C546.561 256.02 546.356 256.396 546.085 256.708C545.815 257.021 545.481 257.261 545.084 257.429C544.692 257.597 544.247 257.681 543.747 257.681C543.248 257.681 542.8 257.597 542.403 257.429C542.011 257.261 541.678 257.021 541.402 256.708C541.132 256.396 540.924 256.02 540.779 255.581C540.639 255.143 540.569 254.65 540.569 254.104C540.569 253.558 540.639 253.066 540.779 252.627C540.924 252.184 541.132 251.806 541.402 251.493C541.678 251.181 542.011 250.94 542.403 250.772C542.8 250.6 543.248 250.513 543.747 250.513ZM543.747 257.156C544.163 257.156 544.524 257.086 544.832 256.946C545.145 256.802 545.404 256.596 545.609 256.33C545.819 256.064 545.976 255.745 546.078 255.371C546.181 254.993 546.232 254.571 546.232 254.104C546.232 253.642 546.181 253.222 546.078 252.844C545.976 252.466 545.819 252.144 545.609 251.878C545.404 251.608 545.145 251.4 544.832 251.255C544.524 251.111 544.163 251.038 543.747 251.038C543.332 251.038 542.968 251.111 542.655 251.255C542.347 251.4 542.088 251.608 541.878 251.878C541.673 252.144 541.517 252.466 541.409 252.844C541.307 253.222 541.255 253.642 541.255 254.104C541.255 254.571 541.307 254.993 541.409 255.371C541.517 255.745 541.673 256.064 541.878 256.33C542.088 256.596 542.347 256.802 542.655 256.946C542.968 257.086 543.332 257.156 543.747 257.156ZM554.2 250.625V257.59H553.829C553.712 257.59 553.645 257.53 553.626 257.408L553.563 256.372C553.241 256.774 552.868 257.096 552.443 257.338C552.023 257.581 551.554 257.702 551.036 257.702C550.649 257.702 550.31 257.642 550.021 257.52C549.732 257.399 549.491 257.224 549.3 256.995C549.109 256.767 548.964 256.491 548.866 256.169C548.768 255.847 548.719 255.483 548.719 255.077V250.625H549.391V255.077C549.391 255.731 549.54 256.244 549.839 256.617C550.138 256.986 550.593 257.17 551.204 257.17C551.657 257.17 552.079 257.056 552.471 256.827C552.868 256.594 553.22 256.272 553.528 255.861V250.625H554.2ZM557.13 251.843C557.452 251.442 557.823 251.12 558.243 250.877C558.668 250.635 559.139 250.513 559.657 250.513C560.04 250.513 560.376 250.574 560.665 250.695C560.959 250.817 561.202 250.992 561.393 251.22C561.585 251.449 561.729 251.724 561.827 252.046C561.925 252.368 561.974 252.732 561.974 253.138V257.59H561.302V253.138C561.302 252.485 561.153 251.974 560.854 251.605C560.556 251.232 560.101 251.045 559.489 251.045C559.037 251.045 558.612 251.162 558.215 251.395C557.823 251.624 557.473 251.944 557.165 252.354V257.59H556.493V250.625H556.864C556.981 250.625 557.049 250.684 557.067 250.8L557.13 251.843ZM565.999 257.702C565.527 257.702 565.159 257.572 564.893 257.31C564.631 257.049 564.501 256.645 564.501 256.099V251.339H563.5C563.448 251.339 563.406 251.325 563.374 251.297C563.341 251.269 563.325 251.23 563.325 251.178V250.919L564.515 250.835L564.683 248.343C564.692 248.301 564.711 248.264 564.739 248.231C564.767 248.199 564.806 248.182 564.858 248.182H565.173V250.842H567.371V251.339H565.173V256.064C565.173 256.256 565.196 256.421 565.243 256.561C565.294 256.697 565.362 256.809 565.446 256.897C565.534 256.986 565.637 257.051 565.754 257.093C565.87 257.135 565.996 257.156 566.132 257.156C566.3 257.156 566.444 257.133 566.566 257.086C566.687 257.035 566.792 256.981 566.881 256.925C566.969 256.865 567.042 256.811 567.098 256.764C567.154 256.713 567.198 256.687 567.231 256.687C567.268 256.687 567.305 256.711 567.343 256.757L567.525 257.051C567.347 257.247 567.121 257.406 566.846 257.527C566.575 257.644 566.293 257.702 565.999 257.702ZM568.404 248.546C568.53 248.42 568.672 248.299 568.831 248.182C568.989 248.066 569.162 247.963 569.349 247.874C569.54 247.781 569.748 247.709 569.972 247.657C570.196 247.601 570.438 247.573 570.7 247.573C571.022 247.573 571.327 247.622 571.617 247.72C571.911 247.818 572.165 247.958 572.38 248.14C572.599 248.322 572.772 248.546 572.898 248.812C573.028 249.074 573.094 249.368 573.094 249.694C573.094 250.049 573.038 250.355 572.926 250.611C572.818 250.868 572.681 251.094 572.513 251.29C572.345 251.482 572.163 251.652 571.967 251.801C571.771 251.946 571.586 252.084 571.414 252.214C571.241 252.34 571.094 252.469 570.973 252.599C570.856 252.73 570.793 252.875 570.784 253.033L570.707 254.181H570.252L570.21 252.984C570.2 252.788 570.249 252.616 570.357 252.466C570.464 252.317 570.602 252.175 570.77 252.039C570.938 251.904 571.12 251.766 571.316 251.626C571.512 251.486 571.694 251.328 571.862 251.15C572.034 250.973 572.177 250.77 572.289 250.541C572.405 250.313 572.464 250.04 572.464 249.722C572.464 249.47 572.415 249.246 572.317 249.05C572.219 248.85 572.086 248.682 571.918 248.546C571.75 248.406 571.556 248.301 571.337 248.231C571.117 248.157 570.889 248.119 570.651 248.119C570.343 248.119 570.074 248.161 569.846 248.245C569.622 248.325 569.433 248.416 569.279 248.518C569.125 248.616 569.003 248.707 568.915 248.791C568.826 248.871 568.765 248.91 568.733 248.91C568.663 248.91 568.611 248.882 568.579 248.826L568.404 248.546ZM569.818 257.051C569.818 256.963 569.834 256.879 569.867 256.799C569.899 256.72 569.944 256.652 570 256.596C570.06 256.536 570.128 256.489 570.203 256.456C570.282 256.419 570.368 256.4 570.462 256.4C570.55 256.4 570.634 256.419 570.714 256.456C570.793 256.489 570.861 256.536 570.917 256.596C570.977 256.652 571.024 256.72 571.057 256.799C571.094 256.879 571.113 256.963 571.113 257.051C571.113 257.145 571.094 257.231 571.057 257.31C571.024 257.385 570.977 257.453 570.917 257.513C570.861 257.569 570.793 257.614 570.714 257.646C570.634 257.679 570.55 257.695 570.462 257.695C570.28 257.695 570.126 257.635 570 257.513C569.878 257.387 569.818 257.233 569.818 257.051ZM584.463 256.981V257.59H579.052V247.685H579.773V256.981H584.463ZM587.894 250.513C588.393 250.513 588.839 250.6 589.231 250.772C589.627 250.94 589.961 251.181 590.232 251.493C590.502 251.806 590.708 252.184 590.848 252.627C590.992 253.066 591.065 253.558 591.065 254.104C591.065 254.65 590.992 255.143 590.848 255.581C590.708 256.02 590.502 256.396 590.232 256.708C589.961 257.021 589.627 257.261 589.231 257.429C588.839 257.597 588.393 257.681 587.894 257.681C587.394 257.681 586.946 257.597 586.55 257.429C586.158 257.261 585.824 257.021 585.549 256.708C585.278 256.396 585.07 256.02 584.926 255.581C584.786 255.143 584.716 254.65 584.716 254.104C584.716 253.558 584.786 253.066 584.926 252.627C585.07 252.184 585.278 251.806 585.549 251.493C585.824 251.181 586.158 250.94 586.55 250.772C586.946 250.6 587.394 250.513 587.894 250.513ZM587.894 257.156C588.309 257.156 588.671 257.086 588.979 256.946C589.291 256.802 589.55 256.596 589.756 256.33C589.966 256.064 590.122 255.745 590.225 255.371C590.327 254.993 590.379 254.571 590.379 254.104C590.379 253.642 590.327 253.222 590.225 252.844C590.122 252.466 589.966 252.144 589.756 251.878C589.55 251.608 589.291 251.4 588.979 251.255C588.671 251.111 588.309 251.038 587.894 251.038C587.478 251.038 587.114 251.111 586.802 251.255C586.494 251.4 586.235 251.608 586.025 251.878C585.819 252.144 585.663 252.466 585.556 252.844C585.453 253.222 585.402 253.642 585.402 254.104C585.402 254.571 585.453 254.993 585.556 255.371C585.663 255.745 585.819 256.064 586.025 256.33C586.235 256.596 586.494 256.802 586.802 256.946C587.114 257.086 587.478 257.156 587.894 257.156ZM595.19 254.51C595.489 254.51 595.755 254.468 595.988 254.384C596.221 254.296 596.417 254.174 596.576 254.02C596.735 253.866 596.856 253.682 596.94 253.467C597.024 253.253 597.066 253.015 597.066 252.753C597.066 252.492 597.022 252.254 596.933 252.039C596.849 251.82 596.725 251.633 596.562 251.479C596.403 251.325 596.207 251.206 595.974 251.122C595.745 251.038 595.484 250.996 595.19 250.996C594.896 250.996 594.632 251.038 594.399 251.122C594.17 251.206 593.974 251.325 593.811 251.479C593.652 251.633 593.531 251.82 593.447 252.039C593.363 252.254 593.321 252.492 593.321 252.753C593.321 253.015 593.363 253.253 593.447 253.467C593.531 253.682 593.652 253.866 593.811 254.02C593.974 254.174 594.17 254.296 594.399 254.384C594.632 254.468 594.896 254.51 595.19 254.51ZM597.794 258.059C597.794 257.84 597.736 257.665 597.619 257.534C597.507 257.399 597.355 257.294 597.164 257.219C596.973 257.145 596.751 257.093 596.499 257.065C596.252 257.033 595.99 257.009 595.715 256.995C595.444 256.981 595.171 256.967 594.896 256.953C594.621 256.939 594.362 256.911 594.119 256.869C593.942 256.939 593.778 257.021 593.629 257.114C593.48 257.203 593.351 257.306 593.244 257.422C593.137 257.539 593.053 257.665 592.992 257.8C592.931 257.94 592.901 258.09 592.901 258.248C592.901 258.454 592.952 258.643 593.055 258.815C593.162 258.993 593.316 259.144 593.517 259.27C593.722 259.401 593.972 259.504 594.266 259.578C594.56 259.653 594.898 259.69 595.281 259.69C595.636 259.69 595.965 259.651 596.268 259.571C596.576 259.492 596.842 259.38 597.066 259.235C597.295 259.091 597.472 258.918 597.598 258.717C597.729 258.517 597.794 258.297 597.794 258.059ZM598.522 250.933V251.164C598.522 251.267 598.457 251.33 598.326 251.353L597.262 251.43C597.393 251.608 597.493 251.806 597.563 252.025C597.633 252.245 597.668 252.483 597.668 252.739C597.668 253.075 597.607 253.381 597.486 253.656C597.369 253.927 597.201 254.16 596.982 254.356C596.767 254.548 596.506 254.697 596.198 254.804C595.895 254.912 595.559 254.965 595.19 254.965C594.793 254.965 594.432 254.905 594.105 254.783C593.909 254.895 593.753 255.028 593.636 255.182C593.524 255.332 593.468 255.481 593.468 255.63C593.468 255.831 593.538 255.985 593.678 256.092C593.823 256.2 594.009 256.279 594.238 256.33C594.471 256.377 594.735 256.407 595.029 256.421C595.328 256.435 595.631 256.452 595.939 256.47C596.247 256.484 596.548 256.512 596.842 256.554C597.141 256.596 597.404 256.671 597.633 256.778C597.866 256.881 598.053 257.028 598.193 257.219C598.338 257.406 598.41 257.656 598.41 257.968C598.41 258.258 598.338 258.535 598.193 258.801C598.048 259.067 597.838 259.303 597.563 259.508C597.292 259.714 596.963 259.877 596.576 259.998C596.189 260.124 595.755 260.187 595.274 260.187C594.784 260.187 594.355 260.136 593.986 260.033C593.617 259.935 593.307 259.8 593.055 259.627C592.808 259.459 592.621 259.263 592.495 259.039C592.369 258.815 592.306 258.577 592.306 258.325C592.306 257.957 592.427 257.642 592.67 257.38C592.913 257.114 593.244 256.907 593.664 256.757C593.431 256.678 593.242 256.564 593.097 256.414C592.957 256.26 592.887 256.053 592.887 255.791C592.887 255.693 592.906 255.591 592.943 255.483C592.98 255.376 593.036 255.271 593.111 255.168C593.186 255.061 593.277 254.961 593.384 254.867C593.491 254.774 593.613 254.69 593.748 254.615C593.417 254.424 593.158 254.17 592.971 253.852C592.789 253.535 592.698 253.164 592.698 252.739C592.698 252.403 592.756 252.1 592.873 251.829C592.994 251.554 593.165 251.318 593.384 251.122C593.603 250.926 593.865 250.775 594.168 250.667C594.476 250.56 594.817 250.506 595.19 250.506C595.498 250.506 595.78 250.544 596.037 250.618C596.298 250.693 596.532 250.798 596.737 250.933H598.522ZM604.902 257.59H604.181V247.685H604.902V257.59ZM608.044 251.843C608.366 251.442 608.737 251.12 609.157 250.877C609.582 250.635 610.053 250.513 610.571 250.513C610.954 250.513 611.29 250.574 611.579 250.695C611.873 250.817 612.116 250.992 612.307 251.22C612.499 251.449 612.643 251.724 612.741 252.046C612.839 252.368 612.888 252.732 612.888 253.138V257.59H612.216V253.138C612.216 252.485 612.067 251.974 611.768 251.605C611.47 251.232 611.015 251.045 610.403 251.045C609.951 251.045 609.526 251.162 609.129 251.395C608.737 251.624 608.387 251.944 608.079 252.354V257.59H607.407V250.625H607.778C607.895 250.625 607.963 250.684 607.981 250.8L608.044 251.843Z" fill="black"/>
</g>
<defs>
<filter id="filter0_d_2820_5128" x="253" y="93" width="609" height="821" filterUnits="userSpaceOnUse" color-interpolation-filters="sRGB">
<feFlood flood-opacity="0" result="BackgroundImageFix"/>
<feColorMatrix in="SourceAlpha" type="matrix" values="0 0 0 0 0 0 0 0 0 0 0 0 0 0 0 0 0 0 127 0" result="hardAlpha"/>
<feOffset dx="3" dy="4"/>
<feGaussianBlur stdDeviation="7.5"/>
<feComposite in2="hardAlpha" operator="out"/>
<feColorMatrix type="matrix" values="0 0 0 0 0 0 0 0 0 0 0 0 0 0 0 0 0 0 0.25 0"/>
<feBlend mode="normal" in2="BackgroundImageFix" result="effect1_dropShadow_2820_5128"/>
<feBlend mode="normal" in="SourceGraphic" in2="effect1_dropShadow_2820_5128" result="shape"/>
</filter>
<filter id="filter1_d_2820_5128" x="253" y="93" width="609" height="917.264" filterUnits="userSpaceOnUse" color-interpolation-filters="sRGB">
<feFlood flood-opacity="0" result="BackgroundImageFix"/>
<feColorMatrix in="SourceAlpha" type="matrix" values="0 0 0 0 0 0 0 0 0 0 0 0 0 0 0 0 0 0 127 0" result="hardAlpha"/>
<feOffset dx="3" dy="4"/>
<feGaussianBlur stdDeviation="7.5"/>
<feComposite in2="hardAlpha" operator="out"/>
<feColorMatrix type="matrix" values="0 0 0 0 0 0 0 0 0 0 0 0 0 0 0 0 0 0 0.25 0"/>
<feBlend mode="normal" in2="BackgroundImageFix" result="effect1_dropShadow_2820_5128"/>
<feBlend mode="normal" in="SourceGraphic" in2="effect1_dropShadow_2820_5128" result="shape"/>
</filter>
<filter id="filter2_d_2820_5128" x="394.688" y="157.153" width="325.625" height="391.299" filterUnits="userSpaceOnUse" color-interpolation-filters="sRGB">
<feFlood flood-opacity="0" result="BackgroundImageFix"/>
<feColorMatrix in="SourceAlpha" type="matrix" values="0 0 0 0 0 0 0 0 0 0 0 0 0 0 0 0 0 0 127 0" result="hardAlpha"/>
<feMorphology radius="1" operator="erode" in="SourceAlpha" result="effect1_dropShadow_2820_5128"/>
<feOffset dx="3" dy="4"/>
<feGaussianBlur stdDeviation="3.5"/>
<feComposite in2="hardAlpha" operator="out"/>
<feColorMatrix type="matrix" values="0 0 0 0 0 0 0 0 0 0 0 0 0 0 0 0 0 0 0.15 0"/>
<feBlend mode="normal" in2="BackgroundImageFix" result="effect1_dropShadow_2820_5128"/>
<feBlend mode="normal" in="SourceGraphic" in2="effect1_dropShadow_2820_5128" result="shape"/>
</filter>
<clipPath id="clip0_2820_5128">
<rect width="1110" height="500" fill="white"/>
</clipPath>
<clipPath id="clip1_2820_5128">
<rect width="18" height="18" fill="white" transform="translate(658.472 418.785)"/>
</clipPath>
</defs>
</svg>
